<svg width="57" height="50" viewBox="0 0 57 50" fill="none" xmlns="http://www.w3.org/2000/svg">
<g filter="url(#filter0_d_5_92)">
<path fill-rule="evenodd" clip-rule="evenodd" d="M47.5676 22.9736L43.7454 18.9373C43.4922 18.6952 43.1512 18.5594 42.7959 18.5594C42.4407 18.5594 42.0996 18.6952 41.8465 18.9373L38.0194 22.9736C37.8945 23.0937 37.7953 23.2366 37.7277 23.3941C37.66 23.5516 37.6252 23.7205 37.6252 23.8912C37.6252 24.0619 37.66 24.2308 37.7277 24.3883C37.7953 24.5458 37.8945 24.6887 38.0194 24.8088H41.1858C40.5935 26.9704 39.4243 28.9418 37.7962 30.5237C36.1682 32.1057 34.1391 33.242 31.9141 33.818C29.3138 34.4787 26.5676 34.3502 24.0448 33.4497C21.5219 32.5492 19.3434 30.9199 17.8021 28.7809L15.1324 30.5661C17.0556 33.2351 19.774 35.268 22.9221 36.3912C26.0702 37.5144 29.4969 37.6741 32.7411 36.8488C35.659 36.0972 38.3048 34.5738 40.3842 32.4481C42.4635 30.3224 43.8948 27.6778 44.5186 24.8088H47.5652C47.6899 24.6887 47.789 24.5459 47.8567 24.3885C47.9244 24.2311 47.9593 24.0623 47.9595 23.8917C47.9598 23.7211 47.9253 23.5522 47.858 23.3946C47.7907 23.2371 47.692 23.094 47.5676 22.9736Z" fill="url(#paint0_linear_5_92)"/>
<path fill-rule="evenodd" clip-rule="evenodd" d="M19.865 20.8651C19.9899 20.7451 20.089 20.6022 20.1567 20.4447C20.2243 20.2872 20.2592 20.1182 20.2592 19.9476C20.2592 19.7769 20.2243 19.6079 20.1567 19.4504C20.0262 19.1468 19.6804 19.03 19.3498 19.03H19.0334C17.6626 19.03 16.6762 17.7087 17.3285 16.5031C17.9469 15.36 18.7439 14.3105 19.6958 13.3939C21.3146 11.8351 23.325 10.7149 25.5273 10.1444C28.1277 9.48292 30.8743 9.61158 33.3971 10.5131C35.4235 11.2372 37.2274 12.432 38.6565 13.9837C39.243 14.6205 40.2076 14.8044 40.9272 14.323C41.6824 13.8178 41.8736 12.7809 41.269 12.1026C39.4553 10.0677 37.1344 8.50443 34.5164 7.57003C31.367 6.44597 27.9388 6.28586 24.6929 7.11125C21.7976 7.85935 19.1701 9.36715 17.0983 11.4695C15.5881 13.0019 14.4157 14.8072 13.6419 16.7743C13.1362 18.06 11.9663 19.03 10.5847 19.03H9.90932C9.5788 19.03 9.23297 19.1468 9.1025 19.4504C9.03484 19.6079 9 19.7769 9 19.9476C9 20.1182 9.03484 20.2872 9.1025 20.4447C9.17017 20.6022 9.26931 20.7451 9.3942 20.8651L13.4024 24.7564C13.6556 24.9986 13.9966 25.1343 14.3518 25.1343C14.7071 25.1343 15.0481 24.9986 15.3013 24.7564L19.865 20.8651Z" fill="url(#paint1_linear_5_92)"/>
</g>
<defs>
<filter id="filter0_d_5_92" x="0" y="0.591187" width="56.9595" height="48.7778" filterUnits="userSpaceOnUse" color-interpolation-filters="sRGB">
<feFlood flood-opacity="0" result="BackgroundImageFix"/>
<feColorMatrix in="SourceAlpha" type="matrix" values="0 0 0 0 0 0 0 0 0 0 0 0 0 0 0 0 0 0 127 0" result="hardAlpha"/>
<feOffset dy="3"/>
<feGaussianBlur stdDeviation="4.5"/>
<feComposite in2="hardAlpha" operator="out"/>
<feColorMatrix type="matrix" values="0 0 0 0 0.00930211 0 0 0 0 0.2375 0 0 0 0 0.181527 0 0 0 1 0"/>
<feBlend mode="normal" in2="BackgroundImageFix" result="effect1_dropShadow_5_92"/>
<feBlend mode="normal" in="SourceGraphic" in2="effect1_dropShadow_5_92" result="shape"/>
</filter>
<linearGradient id="paint0_linear_5_92" x1="32" y1="22.5" x2="23" y2="39.5" gradientUnits="userSpaceOnUse">
<stop stop-color="#B5FF55"/>
<stop offset="1" stop-color="#1BB88D"/>
</linearGradient>
<linearGradient id="paint1_linear_5_92" x1="9" y1="15.8628" x2="42.309" y2="15.8628" gradientUnits="userSpaceOnUse">
<stop stop-color="#00B09B"/>
<stop offset="1" stop-color="#DFEF23"/>
</linearGradient>
</defs>
</svg>
