<svg width="231" height="35" viewBox="0 0 231 35" fill="none" xmlns="http://www.w3.org/2000/svg">
<g filter="url(#filter0_dd_9_109)">
<path d="M22.5645 21.2539V26H8.92383V21.2539H22.5645ZM11.1211 0.40625V26H4.95117V0.40625H11.1211ZM20.8066 10.5664V15.1543H8.92383V10.5664H20.8066ZM22.6172 0.40625V5.16992H8.92383V0.40625H22.6172ZM30.457 0.40625L34.6406 8.91406L38.8242 0.40625H45.8555L38.7188 13.0977L46.0488 26H38.9473L34.6406 17.334L30.334 26H23.2148L30.5625 13.0977L23.4082 0.40625H30.457ZM60.4805 0.40625V26H54.3105V0.40625H60.4805ZM68.1797 0.40625V5.16992H46.7871V0.40625H68.1797ZM70.7988 0.40625H80.8711C82.8398 0.40625 84.5508 0.699219 86.0039 1.28516C87.457 1.87109 88.5762 2.73828 89.3613 3.88672C90.1582 5.03516 90.5566 6.45312 90.5566 8.14062C90.5566 9.60547 90.3281 10.8301 89.8711 11.8145C89.4141 12.7988 88.7754 13.6133 87.9551 14.2578C87.1465 14.8906 86.2031 15.4121 85.125 15.8223L83.1035 16.9648H74.6484L74.6133 12.2012H80.8711C81.6562 12.2012 82.3066 12.0605 82.8223 11.7793C83.3379 11.498 83.7246 11.0996 83.9824 10.584C84.252 10.0566 84.3867 9.42969 84.3867 8.70312C84.3867 7.96484 84.252 7.33203 83.9824 6.80469C83.7129 6.27734 83.3145 5.87305 82.7871 5.5918C82.2715 5.31055 81.6328 5.16992 80.8711 5.16992H76.9688V26H70.7988V0.40625ZM84.8086 26L79.1484 14.6797L85.6875 14.6445L91.418 25.7363V26H84.8086ZM105.129 5.78516L98.8887 26H92.2617L101.666 0.40625H105.867L105.129 5.78516ZM110.297 26L104.039 5.78516L103.23 0.40625H107.484L116.941 26H110.297ZM110.051 16.4551V21.2188H96.9199V16.4551H110.051ZM148.723 12.3242V22.8359C148.289 23.3164 147.621 23.832 146.719 24.3828C145.828 24.9219 144.703 25.3848 143.344 25.7715C141.984 26.1582 140.385 26.3516 138.545 26.3516C136.846 26.3516 135.305 26.082 133.922 25.543C132.539 24.9922 131.35 24.1895 130.354 23.1348C129.369 22.0684 128.607 20.7676 128.068 19.2324C127.541 17.6855 127.277 15.916 127.277 13.9238V12.5C127.277 10.5078 127.547 8.73828 128.086 7.19141C128.625 5.64453 129.381 4.34375 130.354 3.28906C131.338 2.22266 132.492 1.41406 133.816 0.863281C135.152 0.3125 136.617 0.0371094 138.211 0.0371094C140.566 0.0371094 142.482 0.412109 143.959 1.16211C145.436 1.90039 146.555 2.92578 147.316 4.23828C148.078 5.53906 148.541 7.04492 148.705 8.75586H142.781C142.664 7.91211 142.441 7.19727 142.113 6.61133C141.797 6.01367 141.34 5.5625 140.742 5.25781C140.145 4.94141 139.371 4.7832 138.422 4.7832C137.684 4.7832 137.01 4.94141 136.4 5.25781C135.803 5.57422 135.293 6.05469 134.871 6.69922C134.449 7.33203 134.121 8.12891 133.887 9.08984C133.664 10.0508 133.553 11.1758 133.553 12.4648V13.9238C133.553 15.2012 133.658 16.3203 133.869 17.2812C134.092 18.2422 134.42 19.0449 134.854 19.6895C135.299 20.3223 135.861 20.8027 136.541 21.1309C137.232 21.4473 138.047 21.6055 138.984 21.6055C139.641 21.6055 140.203 21.5527 140.672 21.4473C141.141 21.3301 141.527 21.1895 141.832 21.0254C142.148 20.8496 142.389 20.6855 142.553 20.5332V16.5605H138.264V12.3242H148.723ZM163.172 5.78516L156.932 26H150.305L159.709 0.40625H163.91L163.172 5.78516ZM168.34 26L162.082 5.78516L161.273 0.40625H165.527L174.984 26H168.34ZM168.094 16.4551V21.2188H154.963V16.4551H168.094ZM179.924 0.40625H184.951L190.664 18.2129L196.377 0.40625H201.404L192.703 26H188.625L179.924 0.40625ZM176.865 0.40625H182.068L183.035 20.0234V26H176.865V0.40625ZM199.26 0.40625H204.48V26H198.293V20.0234L199.26 0.40625ZM226.049 21.2539V26H212.408V21.2539H226.049ZM214.605 0.40625V26H208.436V0.40625H214.605ZM224.291 10.5664V15.1543H212.408V10.5664H224.291ZM226.102 0.40625V5.16992H212.408V0.40625H226.102Z" fill="url(#paint0_linear_9_109)"/>
</g>
<defs>
<filter id="filter0_dd_9_109" x="0.951172" y="0.0371094" width="229.15" height="34.3145" filterUnits="userSpaceOnUse" color-interpolation-filters="sRGB">
<feFlood flood-opacity="0" result="BackgroundImageFix"/>
<feColorMatrix in="SourceAlpha" type="matrix" values="0 0 0 0 0 0 0 0 0 0 0 0 0 0 0 0 0 0 127 0" result="hardAlpha"/>
<feOffset dx="0.614198" dy="0.614198"/>
<feGaussianBlur stdDeviation="0.307099"/>
<feColorMatrix type="matrix" values="0 0 0 0 0 0 0 0 0 0 0 0 0 0 0 0 0 0 0.25 0"/>
<feBlend mode="normal" in2="BackgroundImageFix" result="effect1_dropShadow_9_109"/>
<feColorMatrix in="SourceAlpha" type="matrix" values="0 0 0 0 0 0 0 0 0 0 0 0 0 0 0 0 0 0 127 0" result="hardAlpha"/>
<feOffset dy="4"/>
<feGaussianBlur stdDeviation="2"/>
<feComposite in2="hardAlpha" operator="out"/>
<feColorMatrix type="matrix" values="0 0 0 0 0 0 0 0 0 0 0 0 0 0 0 0 0 0 0.69 0"/>
<feBlend mode="normal" in2="effect1_dropShadow_9_109" result="effect2_dropShadow_9_109"/>
<feBlend mode="normal" in="SourceGraphic" in2="effect2_dropShadow_9_109" result="shape"/>
</filter>
<linearGradient id="paint0_linear_9_109" x1="115" y1="-10.5" x2="115" y2="19.5" gradientUnits="userSpaceOnUse">
<stop stop-color="#00BF8F"/>
<stop offset="1" stop-color="#EEFF2E"/>
</linearGradient>
</defs>
</svg>
