<svg width="534" height="85" viewBox="0 0 534 85" fill="none" xmlns="http://www.w3.org/2000/svg">
<g filter="url(#filter0_d_4_63)">
<path d="M39.4585 2.16597C42.7358 0.737345 46.2726 0 49.8478 0H484.264C487.895 0 491.486 0.760715 494.806 2.23314L510.192 9.05777C529.827 17.7673 531.03 45.1803 512.233 55.5765L495.644 64.7519C491.792 66.8824 487.462 68 483.06 68H51.0367C46.6994 68 42.4311 66.915 38.6203 64.8437L21.7554 55.677C2.7374 45.34 3.93993 17.6487 23.7824 8.99925L39.4585 2.16597Z" fill="url(#paint0_linear_4_63)"/>
<path d="M39.858 3.08266C43.0094 1.70899 46.4101 1 49.8478 1H484.264C487.756 1 491.209 1.73146 494.4 3.14725L509.786 9.97188C528.667 18.3464 529.823 44.7051 511.749 54.7015L495.16 63.8768C491.456 65.9254 487.293 67 483.06 67H51.0367C46.8663 67 42.7621 65.9567 39.0979 63.9651L22.2329 54.7984C3.94641 44.859 5.10269 18.2327 24.182 9.91594L39.858 3.08266Z" stroke="url(#paint1_linear_4_63)" stroke-width="2"/>
</g>
<defs>
<filter id="filter0_d_4_63" x="0.17107" y="0" width="533.479" height="85" filterUnits="userSpaceOnUse" color-interpolation-filters="sRGB">
<feFlood flood-opacity="0" result="BackgroundImageFix"/>
<feColorMatrix in="SourceAlpha" type="matrix" values="0 0 0 0 0 0 0 0 0 0 0 0 0 0 0 0 0 0 127 0" result="hardAlpha"/>
<feOffset dy="9"/>
<feGaussianBlur stdDeviation="4"/>
<feComposite in2="hardAlpha" operator="out"/>
<feColorMatrix type="matrix" values="0 0 0 0 0 0 0 0 0 0 0 0 0 0 0 0 0 0 0.25 0"/>
<feBlend mode="normal" in2="BackgroundImageFix" result="effect1_dropShadow_4_63"/>
<feBlend mode="normal" in="SourceGraphic" in2="effect1_dropShadow_4_63" result="shape"/>
</filter>
<linearGradient id="paint0_linear_4_63" x1="-25" y1="34" x2="558" y2="34" gradientUnits="userSpaceOnUse">
<stop stop-color="#00BF8F"/>
<stop offset="1" stop-color="#001510"/>
</linearGradient>
<linearGradient id="paint1_linear_4_63" x1="-5.49999" y1="48.5001" x2="533.084" y2="-22.4547" gradientUnits="userSpaceOnUse">
<stop stop-color="#018866"/>
<stop offset="1" stop-color="#FFEF55"/>
</linearGradient>
</defs>
</svg>
