<svg width="72" height="72" viewBox="0 0 72 72" fill="none" xmlns="http://www.w3.org/2000/svg">
<g filter="url(#filter0_d_2_11)">
<path d="M36.0401 0C18.418 0 4 14.4 4 32C4 49.6 18.418 64 36.0401 64C44.8511 64 53.0213 60.56 58.7885 54.72L53.0213 48.96C48.6959 53.28 42.6884 56 35.96 56C22.6633 56 11.9299 45.28 11.9299 32C11.9299 18.72 22.6633 8 35.96 8C42.6083 8 48.3755 10.88 52.7009 15.28L43.97 24H68V0L58.4681 9.52C52.7009 3.76 44.771 0 35.96 0H36.0401Z" fill="white"/>
</g>
<defs>
<filter id="filter0_d_2_11" x="0" y="0" width="72" height="72" filterUnits="userSpaceOnUse" color-interpolation-filters="sRGB">
<feFlood flood-opacity="0" result="BackgroundImageFix"/>
<feColorMatrix in="SourceAlpha" type="matrix" values="0 0 0 0 0 0 0 0 0 0 0 0 0 0 0 0 0 0 127 0" result="hardAlpha"/>
<feOffset dy="4"/>
<feGaussianBlur stdDeviation="2"/>
<feComposite in2="hardAlpha" operator="out"/>
<feColorMatrix type="matrix" values="0 0 0 0 0 0 0 0 0 0 0 0 0 0 0 0 0 0 0.25 0"/>
<feBlend mode="normal" in2="BackgroundImageFix" result="effect1_dropShadow_2_11"/>
<feBlend mode="normal" in="SourceGraphic" in2="effect1_dropShadow_2_11" result="shape"/>
</filter>
</defs>
</svg>
