<svg width="37" height="37" viewBox="0 0 37 37" fill="none" xmlns="http://www.w3.org/2000/svg">
<path d="M14.0781 0.949612C23.5088 -1.23182 32.9262 4.64741 35.1077 14.0781C37.2891 23.5088 31.4099 32.9263 21.9792 35.1077C12.5485 37.2891 3.13103 31.4099 0.949599 21.9792C-1.21853 12.5485 4.6474 3.13105 14.0781 0.949612Z" fill="#FF0000"/>
<path d="M16.1399 9.87486C20.6358 8.83735 25.1317 11.644 26.1825 16.1398C27.22 20.6357 24.4134 25.1316 19.9175 26.1824C15.4216 27.2199 10.9258 24.4133 9.87495 19.9174C8.83744 15.4216 11.644 10.9257 16.1399 9.87486Z" fill="#EAE9CE"/>
<path d="M17.2303 21.354C16.7914 21.3939 16.379 21.354 16.0199 21.2476C15.6608 21.1412 15.3415 20.9816 15.0622 20.7687C14.7829 20.5559 14.5567 20.2899 14.3705 19.9706C14.1843 19.6514 14.0513 19.2923 13.9582 18.9065C13.8651 18.4809 13.8385 18.0951 13.8784 17.736C13.9183 17.3769 14.0247 17.0576 14.171 16.7916C14.3173 16.5123 14.5168 16.2861 14.7563 16.1132C14.9957 15.927 15.275 15.8073 15.5676 15.7408C15.8337 15.6743 16.0864 15.6477 16.2992 15.661C16.5253 15.6743 16.7116 15.7142 16.8978 15.7807C17.0707 15.8472 17.2303 15.9536 17.3766 16.0866C17.523 16.2196 17.6427 16.3793 17.7624 16.5655C17.8821 15.5413 18.4141 14.9028 19.3852 14.69C19.8374 14.5836 20.2631 14.5703 20.6355 14.6634C21.0079 14.7565 21.3405 14.9028 21.6331 15.1289C21.9257 15.355 22.1651 15.6344 22.3647 15.9802C22.5642 16.326 22.7105 16.6852 22.8036 17.0842C22.8967 17.4966 22.9366 17.869 22.9233 18.2016C22.91 18.5474 22.8302 18.8533 22.7105 19.146C22.5775 19.4386 22.3913 19.7046 22.1385 19.9706C21.8858 20.2234 21.5799 20.4628 21.2075 20.7022L20.6887 19.9573C20.5557 19.7578 20.4892 19.5716 20.4892 19.3854C20.4892 19.1992 20.5424 19.0395 20.6754 18.9331C20.9547 18.6804 21.1542 18.441 21.2607 18.2016C21.3671 17.9754 21.3804 17.7227 21.3139 17.4567C21.2607 17.2571 21.1941 17.0842 21.0877 16.9512C20.9813 16.8182 20.8616 16.7118 20.7286 16.632C20.5956 16.5522 20.4626 16.5123 20.303 16.4857C20.1566 16.4724 20.0103 16.4724 19.864 16.5123C19.6778 16.5522 19.5182 16.6054 19.3718 16.6719C19.2255 16.7384 19.1191 16.8315 19.0393 16.9778C18.9595 17.1241 18.9196 17.3237 18.9196 17.5631C18.9196 17.8158 18.9595 18.1483 19.0659 18.574L17.8023 18.8666C17.7225 18.5075 17.6294 18.2282 17.523 18.0153C17.4165 17.8025 17.2968 17.6562 17.1771 17.5631C17.0574 17.47 16.9244 17.4168 16.7648 17.4035C16.6185 17.3902 16.4588 17.4168 16.2992 17.4434C15.9667 17.5232 15.714 17.6695 15.5809 17.869C15.4346 18.0685 15.408 18.3479 15.4745 18.6804C15.541 18.9464 15.6608 19.1593 15.847 19.3189C16.0332 19.4785 16.246 19.5583 16.4721 19.5849C16.7116 19.6115 16.8712 19.6913 16.9776 19.811C17.084 19.9307 17.1372 20.117 17.1505 20.3697L17.2303 21.354Z" fill="black"/>
<path d="M7.64033 3.91583C9.47592 5.19277 12.2027 5.68492 15.0226 5.03315C17.8425 4.38138 20.0772 2.74531 21.1679 0.79C18.88 0.377656 16.4858 0.404257 14.0782 0.962917C11.6707 1.50828 9.50253 2.54579 7.64033 3.91583Z" fill="#EAE9CE"/>
<path d="M17.0847 1.52158C17.1379 1.7078 17.1379 1.89402 17.0581 2.06694C16.9782 2.25316 16.8452 2.42608 16.659 2.59899C16.4595 2.77191 16.2068 2.91823 15.9008 3.06454C15.5949 3.19756 15.2358 3.31727 14.8633 3.41038C14.451 3.50349 14.0785 3.5567 13.746 3.5567C13.4268 3.5567 13.1607 3.51679 12.9479 3.45029C12.7484 3.38378 12.5888 3.29067 12.509 3.15765C12.4159 3.03794 12.3893 2.90493 12.4026 2.75861C12.4159 2.6256 12.4558 2.51919 12.509 2.41277C12.5622 2.31966 12.6287 2.22655 12.7218 2.14675C12.8149 2.06694 12.908 1.98713 13.041 1.92062C13.1607 1.85411 13.2938 1.78761 13.4534 1.7211C12.7617 1.761 12.4425 1.61469 12.4824 1.29545C12.4957 1.16244 12.5622 1.02943 12.6819 0.909714C12.7883 0.790001 12.9346 0.696889 13.1075 0.603779C13.2804 0.510669 13.4667 0.430863 13.6795 0.351054C13.8923 0.271246 14.1184 0.218038 14.3446 0.151531C14.584 0.0983249 14.7968 0.0584204 14.9963 0.0318176C15.1959 0.00521472 15.3688 -0.00808478 15.5417 0.00521665C15.7146 0.00521665 15.8742 0.0318185 16.0205 0.0717228C16.1802 0.111627 16.3265 0.164834 16.4861 0.244643L15.9939 0.457465C15.8609 0.510671 15.7412 0.550575 15.6082 0.563877C15.4885 0.577178 15.3821 0.577178 15.3156 0.550575C15.1693 0.497369 15.0229 0.457465 14.8899 0.457465C14.7569 0.444164 14.5973 0.470766 14.4377 0.51067C14.3047 0.537273 14.1982 0.577177 14.1051 0.617081C14.012 0.656985 13.9322 0.69689 13.879 0.736794C13.8125 0.776699 13.7726 0.829905 13.746 0.869809C13.7194 0.909713 13.7061 0.96292 13.7061 1.00282C13.7061 1.05603 13.7194 1.10923 13.746 1.14914C13.7726 1.18904 13.8258 1.21565 13.9056 1.22895C13.9987 1.24225 14.1184 1.24225 14.2914 1.21565C14.4643 1.18904 14.7037 1.14914 14.9963 1.08263L15.1294 1.50828C14.85 1.57478 14.6372 1.62799 14.4776 1.6945C14.318 1.761 14.185 1.81421 14.0918 1.86742C13.9987 1.92062 13.9455 1.98713 13.9189 2.05364C13.8923 2.12014 13.879 2.18665 13.8923 2.25316C13.9056 2.39947 13.9854 2.50589 14.1317 2.55909C14.2914 2.6123 14.5042 2.6123 14.7968 2.54579C15.0362 2.49258 15.2225 2.41277 15.3688 2.30636C15.5018 2.19995 15.5949 2.09354 15.6215 1.98713C15.6614 1.88072 15.7279 1.80091 15.821 1.7477C15.9141 1.6945 16.0738 1.65459 16.2733 1.62799L17.0847 1.52158Z" fill="black"/>
<path d="M28.4315 32.1415C26.5959 30.8645 23.8691 30.3724 21.0492 31.0242C18.2293 31.6759 15.9946 33.312 14.9039 35.2673C17.1918 35.6797 19.586 35.6531 21.9936 35.0944C24.3878 34.549 26.556 33.5248 28.4315 32.1415Z" fill="#EAE9CE"/>
<path d="M18.9742 34.5357C18.921 34.3495 18.921 34.1633 19.0008 33.9903C19.0806 33.8041 19.2137 33.6312 19.3999 33.4583C19.5994 33.2854 19.8521 33.1391 20.1581 32.9927C20.464 32.8597 20.8231 32.74 21.1956 32.6469C21.6079 32.5538 21.9804 32.5006 22.3129 32.5006C22.6321 32.5006 22.8982 32.5405 23.111 32.607C23.3105 32.6735 23.4701 32.7666 23.5499 32.8996C23.643 33.0193 23.6696 33.1524 23.6563 33.2987C23.643 33.4317 23.6031 33.5381 23.5499 33.6445C23.4967 33.7376 23.4302 33.8307 23.3371 33.9105C23.244 33.9903 23.1509 34.0702 23.0179 34.1367C22.8982 34.2032 22.7651 34.2697 22.6055 34.3362C23.2972 34.2963 23.6164 34.4426 23.5765 34.7618C23.5632 34.8948 23.4967 35.0279 23.377 35.1476C23.2706 35.2673 23.1243 35.3604 22.9514 35.4535C22.7784 35.5466 22.5922 35.6264 22.3794 35.7062C22.1666 35.786 21.9404 35.8392 21.7143 35.9057C21.4749 35.959 21.2621 35.9989 21.0626 36.0255C20.863 36.0521 20.6901 36.0654 20.5172 36.0521C20.3443 36.0521 20.1847 36.0255 20.0383 35.9856C19.8787 35.9457 19.7324 35.8924 19.5728 35.8126L20.0516 35.5998C20.1847 35.5466 20.3044 35.5067 20.4374 35.4934C20.5571 35.4801 20.6635 35.4801 20.73 35.5067C20.8763 35.5599 21.0226 35.5998 21.1557 35.5998C21.2887 35.6131 21.4483 35.5865 21.6079 35.5466C21.7409 35.52 21.8473 35.4801 21.9404 35.4402C22.0336 35.4003 22.1134 35.3604 22.1666 35.3205C22.2331 35.2806 22.273 35.2274 22.2996 35.1875C22.3262 35.1476 22.3395 35.0944 22.3395 35.0545C22.3395 35.0013 22.3262 34.948 22.2996 34.9081C22.273 34.8682 22.2198 34.8416 22.14 34.8283C22.0469 34.815 21.9271 34.815 21.7542 34.8416C21.5813 34.8682 21.3419 34.9081 21.0492 34.9747L20.9162 34.549C21.1956 34.4825 21.4084 34.4293 21.568 34.3628C21.7276 34.3096 21.8606 34.2431 21.9537 34.1899C22.0469 34.1367 22.1001 34.0701 22.1267 34.0036C22.1533 33.9371 22.1666 33.8706 22.1533 33.8041C22.14 33.6578 22.0602 33.5514 21.9138 33.4982C21.7542 33.445 21.5414 33.445 21.2488 33.5115C21.0093 33.5647 20.8231 33.6445 20.6768 33.7509C20.5305 33.8573 20.4507 33.9637 20.4241 34.0702C20.3842 34.1766 20.3177 34.2564 20.2246 34.3096C20.1314 34.3628 19.9718 34.4027 19.7723 34.4293L18.9742 34.5357Z" fill="black"/>
<path d="M3.91609 28.4171C5.19302 26.5815 5.68517 23.8547 5.0334 21.0348C4.38163 18.2149 2.74556 15.9803 0.790247 14.8895C0.377903 17.1774 0.404507 19.5716 0.963167 21.9792C1.50853 24.3868 2.54604 26.5549 3.91609 28.4171Z" fill="#EAE9CE"/>
<path d="M1.5216 18.9731C1.70782 18.9199 1.89404 18.9199 2.06695 18.9997C2.25317 19.0795 2.42609 19.2125 2.59901 19.3987C2.77193 19.5983 2.91825 19.851 3.06456 20.1569C3.19758 20.4628 3.31729 20.822 3.4104 21.1944C3.50351 21.6068 3.55672 21.9792 3.55672 22.3118C3.55672 22.631 3.51681 22.897 3.4503 23.1098C3.3838 23.3094 3.29069 23.469 3.15767 23.5488C3.03796 23.6419 2.90494 23.6685 2.75863 23.6552C2.62561 23.6419 2.51921 23.602 2.41279 23.5488C2.31968 23.4956 2.22657 23.4291 2.14676 23.336C2.06696 23.2562 1.98715 23.1497 1.92064 23.0167C1.85414 22.897 1.78763 22.764 1.72112 22.6044C1.76102 23.2961 1.61471 23.6153 1.29547 23.5754C1.16246 23.5621 1.02944 23.4956 0.909731 23.3759C0.790018 23.2695 0.696909 23.1231 0.603799 22.9502C0.510689 22.7773 0.430882 22.5911 0.351073 22.3783C0.271265 22.1654 0.218057 21.9393 0.15155 21.7132C0.0983442 21.4738 0.0584397 21.2609 0.0318368 21.0614C0.00523398 20.8619 -0.00806806 20.689 0.00523337 20.5161C0.00523337 20.3431 0.0318352 20.1835 0.0717395 20.0372C0.111644 19.8776 0.164851 19.7313 0.24466 19.5717L0.457482 20.0638C0.510688 20.1968 0.550595 20.3165 0.563896 20.4495C0.577198 20.5693 0.577195 20.6757 0.550592 20.7422C0.497386 20.8885 0.457482 21.0348 0.457482 21.1678C0.444181 21.3008 0.470785 21.4605 0.510689 21.6201C0.537292 21.7531 0.577194 21.8595 0.617098 21.9526C0.657002 22.0457 0.696907 22.1255 0.736811 22.1787C0.776715 22.2452 0.829924 22.2851 0.869828 22.3118C0.909733 22.3384 0.962936 22.3517 1.00284 22.3517C1.05605 22.3517 1.10925 22.3384 1.14916 22.3118C1.18906 22.2851 1.21567 22.2319 1.22897 22.1521C1.24227 22.0723 1.24227 21.9393 1.21566 21.7664C1.18906 21.5935 1.14916 21.354 1.08265 21.0614L1.5083 20.9284C1.5748 21.2077 1.62801 21.4206 1.69452 21.5802C1.76102 21.7398 1.81423 21.8728 1.86744 21.9659C1.92064 22.059 1.98715 22.1122 2.05365 22.1388C2.12016 22.1654 2.18667 22.1787 2.25318 22.1654C2.39949 22.1521 2.5059 22.0723 2.55911 21.926C2.61232 21.7664 2.61231 21.5536 2.54581 21.2609C2.4926 21.0215 2.41279 20.8353 2.30638 20.689C2.19997 20.556 2.09356 20.4629 1.98715 20.4362C1.88074 20.3963 1.80093 20.3298 1.74772 20.2367C1.69452 20.1436 1.65461 19.984 1.62801 19.7845L1.5216 18.9731Z" fill="black"/>
<path d="M32.1419 7.62693C30.8649 9.46253 30.3728 12.1893 31.0245 15.0092C31.6763 17.8291 33.3124 20.0638 35.2677 21.1545C35.6801 18.8666 35.6534 16.4724 35.0948 14.0648C34.5494 11.6706 33.5252 9.50243 32.1419 7.62693Z" fill="#EAE9CE"/>
<path d="M34.5364 17.0842C34.3502 17.1374 34.164 17.1374 33.991 17.0576C33.8048 16.9778 33.6319 16.8448 33.459 16.6586C33.2861 16.4591 33.1398 16.2063 32.9934 15.9004C32.8604 15.5945 32.7407 15.2353 32.6476 14.8629C32.5545 14.4505 32.5013 14.0781 32.5013 13.7456C32.5013 13.4263 32.5412 13.1603 32.6077 12.9475C32.6742 12.748 32.7673 12.5883 32.9003 12.5085C33.02 12.4154 33.1531 12.3888 33.2994 12.4021C33.4324 12.4154 33.5388 12.4553 33.6452 12.5085C33.7383 12.5617 33.8314 12.6282 33.9112 12.7214C33.991 12.8145 34.0709 12.9076 34.1374 13.0406C34.2039 13.1603 34.2704 13.2933 34.3236 13.4529C34.2837 12.7613 34.43 12.442 34.7492 12.4819C34.8822 12.4952 35.0153 12.5617 35.135 12.6815C35.2547 12.7879 35.3478 12.9342 35.4409 13.1071C35.534 13.28 35.6138 13.4662 35.6936 13.6791C35.7734 13.8919 35.8266 14.118 35.8799 14.3441C35.9331 14.5836 35.973 14.7964 35.9996 14.9959C36.0262 15.1954 36.0395 15.3683 36.0262 15.5413C36.0262 15.7142 35.9996 15.8738 35.9597 16.0201C35.9198 16.1797 35.8665 16.326 35.7867 16.4857L35.5739 15.9935C35.5207 15.8605 35.4808 15.7408 35.4675 15.6078C35.4542 15.4881 35.4542 15.3816 35.4808 15.3151C35.534 15.1688 35.5739 15.0225 35.5739 14.8895C35.5872 14.7565 35.5606 14.5969 35.5207 14.4372C35.4941 14.3042 35.4542 14.1978 35.4143 14.1047C35.3744 14.0116 35.3345 13.9318 35.2946 13.8786C35.2547 13.8254 35.2015 13.7722 35.1616 13.7456C35.1084 13.719 35.0685 13.7057 35.0286 13.7057C34.9754 13.7057 34.9221 13.719 34.8822 13.7456C34.8423 13.7722 34.8157 13.8254 34.8024 13.9052C34.7891 13.985 34.7891 14.118 34.8157 14.2909C34.8423 14.4638 34.8822 14.7033 34.9488 14.9959L34.5231 15.1289C34.4566 14.8496 34.4034 14.6368 34.3369 14.4772C34.2837 14.3175 34.2172 14.1845 34.164 14.0914C34.1108 13.9983 34.0443 13.9451 33.9777 13.9185C33.9112 13.8919 33.8447 13.8786 33.7782 13.8919C33.6319 13.9052 33.5255 13.985 33.4723 14.1313C33.4191 14.2909 33.4191 14.5038 33.4856 14.7964C33.5388 15.0358 33.6186 15.222 33.725 15.3683C33.8314 15.5014 33.9378 15.5945 34.0443 15.6211C34.1507 15.661 34.2305 15.7275 34.2837 15.8206C34.3369 15.9137 34.3768 16.0733 34.4034 16.2728L34.5364 17.0842Z" fill="black"/>
<mask id="mask0_2_20" style="mask-type:alpha" maskUnits="userSpaceOnUse" x="1" y="15" width="34" height="20">
<path d="M9.40966 32.2878C4.04918 29.0156 0.870137 22.8172 1.82784 16.2862C1.88105 15.9403 1.94756 15.6078 2.01406 15.2752C1.52191 21.4205 4.63445 27.1268 9.71559 30.2394C11.5512 31.3567 13.6395 32.1415 15.9141 32.474C18.1886 32.8065 20.4099 32.6602 22.485 32.1149C28.2445 30.6118 32.8734 26.0228 34.1636 20.0106C34.137 20.3431 34.0971 20.6889 34.0572 21.0348C33.0995 27.5658 28.2711 32.5804 22.1923 34.1766C20.1173 34.7219 17.8827 34.8682 15.6214 34.5357C13.3336 34.1899 11.2453 33.4051 9.40966 32.2878Z" fill="url(#paint0_linear_2_20)"/>
</mask>
<g mask="url(#mask0_2_20)">
<path opacity="0.54" d="M9.40966 32.2878C4.04918 29.0156 0.870137 22.8172 1.82784 16.2862C1.88105 15.9403 1.94756 15.6078 2.01406 15.2752C1.52191 21.4205 4.63445 27.1268 9.71559 30.2394C11.5512 31.3567 13.6395 32.1415 15.9141 32.474C18.1886 32.8065 20.4099 32.6602 22.485 32.1149C28.2445 30.6118 32.8734 26.0228 34.1636 20.0106C34.137 20.3431 34.0971 20.6889 34.0572 21.0348C33.0995 27.5658 28.2711 32.5804 22.1923 34.1766C20.1173 34.7219 17.8827 34.8682 15.6214 34.5357C13.3336 34.1899 11.2453 33.4051 9.40966 32.2878Z" fill="url(#paint1_linear_2_20)"/>
</g>
<mask id="mask1_2_20" style="mask-type:alpha" maskUnits="userSpaceOnUse" x="1" y="1" width="34" height="20">
<path d="M13.8785 1.894C7.79976 3.49017 2.97134 8.50481 2.01364 15.0358C1.96043 15.3816 1.93383 15.7142 1.90722 16.06C3.19746 10.0345 7.82636 5.45878 13.5859 3.95572C15.6609 3.41036 17.8955 3.26404 20.1568 3.59658C22.4313 3.92911 24.5196 4.7139 26.3552 5.83122C31.4364 8.93045 34.5489 14.6501 34.0568 20.7953C34.1233 20.4628 34.1898 20.1303 34.243 19.7844C35.2007 13.2534 32.0217 7.06825 26.6612 3.7828C24.8256 2.66548 22.7373 1.88069 20.4627 1.54816C18.1882 1.20232 15.9668 1.34864 13.8785 1.894Z" fill="url(#paint2_linear_2_20)"/>
</mask>
<g mask="url(#mask1_2_20)">
<path opacity="0.34" d="M13.8787 1.894C7.79998 3.49017 2.97156 8.50481 2.01386 15.0358C1.96066 15.3817 1.93405 15.7142 1.90745 16.06C3.19769 10.0345 7.82658 5.45878 13.5861 3.95572C15.6611 3.41036 17.8958 3.26405 20.157 3.59658C22.4316 3.92912 24.5199 4.7139 26.3555 5.83122C31.4366 8.93046 34.5492 14.6501 34.057 20.7953C34.1235 20.4628 34.19 20.1303 34.2432 19.7844C35.2009 13.2534 32.0219 7.06826 26.6614 3.7828C24.8258 2.66548 22.7375 1.8807 20.4629 1.54816C18.1884 1.20233 15.9671 1.34864 13.8787 1.894Z" fill="url(#paint3_linear_2_20)"/>
<path d="M16.3262 44.7246C0.138383 42.7161 -12.2586 35.2274 -11.3807 28.0047C-10.5028 20.7687 3.34402 16.5256 19.5186 18.5341C35.7064 20.5426 48.1033 28.0313 47.2254 35.254C46.3475 42.49 32.5141 46.7331 16.3262 44.7246Z" fill="url(#paint4_radial_2_20)"/>
</g>
<defs>
<linearGradient id="paint0_linear_2_20" x1="5.64045" y1="23.9981" x2="27.3626" y2="27.6928" gradientUnits="userSpaceOnUse">
<stop stop-color="#1A1A1A"/>
<stop offset="0.5457" stop-color="white"/>
<stop offset="0.995" stop-color="#1A1A1A"/>
</linearGradient>
<linearGradient id="paint1_linear_2_20" x1="5.64045" y1="23.9981" x2="27.3626" y2="27.6928" gradientUnits="userSpaceOnUse">
<stop stop-color="white"/>
<stop offset="0.5457" stop-color="white"/>
<stop offset="0.995" stop-color="white"/>
</linearGradient>
<linearGradient id="paint2_linear_2_20" x1="7.88183" y1="8.75423" x2="29.7481" y2="11.4694" gradientUnits="userSpaceOnUse">
<stop stop-color="#1A1A1A"/>
<stop offset="0.5457" stop-color="white"/>
<stop offset="0.995" stop-color="#1A1A1A"/>
</linearGradient>
<linearGradient id="paint3_linear_2_20" x1="7.88205" y1="8.75423" x2="29.7483" y2="11.4694" gradientUnits="userSpaceOnUse">
<stop stop-color="white"/>
<stop offset="0.5457" stop-color="white"/>
<stop offset="0.995" stop-color="white"/>
</linearGradient>
<radialGradient id="paint4_radial_2_20" cx="0" cy="0" r="1" gradientUnits="userSpaceOnUse" gradientTransform="translate(17.9252 31.624) rotate(96.9512) scale(13.1971 29.5295)">
<stop stop-color="#325115"/>
<stop offset="0.0866" stop-color="#38551B"/>
<stop offset="0.2065" stop-color="#49602D"/>
<stop offset="0.3453" stop-color="#65724A"/>
<stop offset="0.4304" stop-color="#797F60"/>
<stop offset="0.4856" stop-color="#8A8F74"/>
<stop offset="0.6625" stop-color="#BCBFAF"/>
<stop offset="0.8134" stop-color="#E0E2DB"/>
<stop offset="0.9307" stop-color="#F7F7F5"/>
<stop offset="1" stop-color="white"/>
</radialGradient>
</defs>
</svg>
