<svg width="37" height="37" viewBox="0 0 37 37" fill="none" xmlns="http://www.w3.org/2000/svg">
<path d="M34.743 23.1711C31.8699 32.4422 22.0135 37.6297 12.7424 34.7566C3.4713 31.8835 -1.71626 22.0272 1.15685 12.7561C4.02996 3.48498 13.8863 -1.70258 23.1574 1.17053C32.4418 4.04364 37.6294 13.9 34.743 23.1711Z" fill="#FCCC00"/>
<path d="M25.9642 20.4443C24.5942 24.8737 19.8855 27.3477 15.4561 25.9777C11.0267 24.6076 8.55265 19.8989 9.9227 15.4696C11.2927 11.0402 16.0015 8.56612 20.4308 9.93616C24.8735 11.3195 27.3476 16.0282 25.9642 20.4443Z" fill="#EAE9CE"/>
<path d="M35.435 16.0947C33.3999 17.0391 31.5909 19.154 30.7396 21.934C29.875 24.7007 30.1677 27.4674 31.3116 29.4094C32.828 27.6404 34.0118 25.552 34.7567 23.1844C35.475 20.8034 35.6878 18.4092 35.435 16.0947Z" fill="#EAE9CE"/>
<path d="M35.3284 23.1179C35.3151 23.078 35.3018 23.0248 35.2885 22.9849C35.2752 22.945 35.2619 22.9051 35.2486 22.8652C35.2353 23.1445 35.1954 23.4371 35.0889 23.7564C35.0357 23.9559 34.9559 24.1421 34.8628 24.3283C34.7697 24.5145 34.65 24.6875 34.517 24.8471C34.384 25.0067 34.2243 25.1397 34.0647 25.2461C33.8918 25.3525 33.6923 25.4057 33.4662 25.419C33.2533 25.419 33.0671 25.3658 32.8942 25.2461C32.7213 25.1131 32.575 24.9269 32.4686 24.6742C32.3621 24.4081 32.3089 24.0889 32.3089 23.7165C32.3089 23.3307 32.3754 22.9184 32.5085 22.4661C32.6415 22.0139 32.8277 21.6148 33.0272 21.3089C33.2267 21.003 33.4396 20.7768 33.679 20.6305C33.9051 20.4842 34.1179 20.4177 34.3441 20.4177C34.5569 20.4177 34.7564 20.4975 34.9426 20.6305C35.1821 20.7901 35.355 20.9897 35.4747 21.2291C35.5944 21.4552 35.6875 21.6946 35.754 21.974L36.153 23.4903C36.1664 23.5435 36.1664 23.6234 36.1664 23.7298C36.1531 23.8362 36.1397 23.9426 36.0998 24.0623L35.8072 25.0466L35.3284 23.1179ZM33.8386 23.916C34.2509 23.9825 34.5303 23.7298 34.7165 23.1312C34.8096 22.8386 34.8229 22.5991 34.7697 22.3996C34.7165 22.2001 34.6101 22.0538 34.4239 21.974C34.3308 21.9341 34.2243 21.9075 34.1312 21.9208C34.0381 21.9341 33.945 21.974 33.8519 22.0405C33.7588 22.107 33.679 22.2001 33.6125 22.3331C33.546 22.4528 33.4795 22.5991 33.4263 22.7588C33.3731 22.9184 33.3464 23.078 33.3464 23.211C33.3464 23.344 33.3597 23.4637 33.3997 23.5701C33.4396 23.6633 33.4928 23.7431 33.5593 23.8096C33.6657 23.8628 33.7455 23.9027 33.8386 23.916Z" fill="black"/>
<path d="M0.465398 19.8325C2.50052 18.8881 4.30952 16.7731 5.16081 13.9931C6.02541 11.2265 5.73277 8.45975 4.58885 6.51775C3.07249 8.28684 1.88866 10.3752 1.15708 12.7428C0.4255 15.1105 0.225973 17.518 0.465398 19.8325Z" fill="#EAE9CE"/>
<path d="M0.83785 12.6763C0.851151 12.7162 0.864451 12.7694 0.877752 12.8093C0.891054 12.8492 0.904354 12.8891 0.917655 12.929C0.930956 12.6497 0.970864 12.3571 1.07728 12.0378C1.13048 11.8383 1.21029 11.6521 1.3034 11.4659C1.39651 11.2797 1.51622 11.1067 1.64924 10.9471C1.78225 10.7875 1.94186 10.6545 2.10148 10.5481C2.2744 10.4417 2.47392 10.3885 2.70004 10.3752C2.91286 10.3752 3.09909 10.4284 3.272 10.5481C3.44492 10.6811 3.59124 10.8673 3.69765 11.12C3.80406 11.3861 3.85727 11.7053 3.85727 12.0777C3.85727 12.4635 3.79076 12.8758 3.65775 13.3281C3.52473 13.7803 3.33851 14.1794 3.13899 14.4853C2.93947 14.7912 2.72665 15.0174 2.48722 15.1637C2.2611 15.31 2.04828 15.3765 1.82215 15.3765C1.60933 15.3765 1.4098 15.2967 1.22358 15.1637C0.984156 15.0041 0.811246 14.8045 0.691533 14.5651C0.57182 14.339 0.478712 14.0996 0.412204 13.8202L0.0131574 12.3039C-0.000144024 12.2507 -0.000146866 12.1576 -0.000146866 12.0644C0.0131546 11.958 0.0264601 11.8516 0.0663643 11.7319L0.358997 10.7476L0.83785 12.6763ZM2.31431 11.8782C1.90196 11.8117 1.62263 12.0644 1.43641 12.663C1.3433 12.9556 1.33 13.1951 1.3832 13.3946C1.43641 13.5941 1.54282 13.7404 1.72904 13.8202C1.82215 13.8601 1.92857 13.8867 2.02168 13.8734C2.11479 13.8601 2.20789 13.8202 2.301 13.7537C2.38081 13.6872 2.46062 13.5941 2.54043 13.4611C2.60694 13.3414 2.67344 13.1951 2.72665 13.0354C2.77986 12.8758 2.80646 12.7162 2.80646 12.5832C2.80646 12.4502 2.79315 12.3305 2.75325 12.2241C2.71334 12.1309 2.66015 12.0511 2.59364 11.9846C2.48723 11.9314 2.40742 11.8915 2.31431 11.8782Z" fill="black"/>
<path d="M16.0809 0.478866C17.0253 2.51399 19.1402 4.32298 21.9202 5.17427C24.6869 6.03886 27.4536 5.74623 29.3956 4.60231C27.6265 3.08595 25.5382 1.90212 23.1705 1.15724C20.8029 0.438962 18.3953 0.226139 16.0809 0.478866Z" fill="#EAE9CE"/>
<path d="M23.3036 0.82468C23.2637 0.837981 23.2105 0.851283 23.1706 0.864585C23.1306 0.877886 23.0908 0.891189 23.0508 0.90449C23.3302 0.917791 23.6228 0.957694 23.942 1.06411C24.1283 1.11731 24.3278 1.19712 24.514 1.30353C24.7002 1.39664 24.8731 1.51636 25.0328 1.64937C25.1924 1.78238 25.3254 1.942 25.4318 2.10162C25.5382 2.27454 25.5914 2.47406 25.6047 2.70018C25.6047 2.913 25.5515 3.09922 25.4318 3.27214C25.2988 3.44506 25.1126 3.59138 24.8598 3.69779C24.5938 3.8042 24.2746 3.85741 23.9021 3.85741C23.5164 3.85741 23.104 3.7909 22.6518 3.65789C22.1996 3.52487 21.8005 3.33865 21.4946 3.13913C21.1886 2.93961 20.9625 2.72678 20.8162 2.48736C20.6699 2.27454 20.6034 2.04841 20.6034 1.82229C20.6034 1.60946 20.6832 1.40994 20.8162 1.22372C20.9758 0.984298 21.1753 0.811378 21.4148 0.691665C21.6409 0.571952 21.8803 0.478843 22.1597 0.412336L23.676 0.0132941C23.7292 -7.32465e-06 23.809 -7.62939e-06 23.9154 -7.62939e-06C24.0219 0.0132938 24.1283 0.0265942 24.248 0.0664985L25.2323 0.359129L23.3036 0.82468ZM24.1017 2.30114C24.1682 1.88879 23.9154 1.60946 23.3169 1.42324C23.0242 1.33013 22.7848 1.31683 22.5853 1.37004C22.3858 1.42324 22.2395 1.52966 22.1597 1.71588C22.1197 1.80899 22.0931 1.9154 22.1064 2.00851C22.1197 2.10162 22.1596 2.19473 22.2262 2.28784C22.2927 2.38095 22.3858 2.46076 22.5188 2.52726C22.6385 2.59377 22.7848 2.66028 22.9444 2.71348C23.104 2.76669 23.2637 2.79329 23.3967 2.79329C23.5297 2.79329 23.6494 2.77999 23.7558 2.74009C23.8489 2.70018 23.9287 2.64698 23.9952 2.58047C24.0485 2.48736 24.0884 2.39425 24.1017 2.30114Z" fill="black"/>
<path d="M19.8319 35.4483C18.8875 33.4132 16.7725 31.6042 13.9925 30.7529C11.2258 29.8883 8.45915 30.1809 6.51714 31.3249C8.28623 32.8412 10.3746 34.0251 12.7422 34.7699C15.1099 35.4882 17.5041 35.701 19.8319 35.4483Z" fill="#EAE9CE"/>
<path d="M12.8351 35.1956C12.875 35.1823 12.9282 35.169 12.9681 35.1557C13.008 35.1424 13.0479 35.1291 13.0879 35.1158C12.8085 35.1025 12.5159 35.0626 12.1966 34.9562C12.0104 34.903 11.8109 34.8232 11.6247 34.73C11.4385 34.6369 11.2655 34.5172 11.1059 34.3842C10.9463 34.2512 10.8133 34.0916 10.7069 33.932C10.6005 33.759 10.5473 33.5595 10.534 33.3334C10.534 33.1206 10.5872 32.9344 10.7069 32.7614C10.8399 32.5885 11.0261 32.4422 11.2789 32.3358C11.5449 32.2294 11.8641 32.1762 12.2366 32.1762C12.6223 32.1762 13.0346 32.2427 13.4869 32.3757C13.9391 32.5087 14.3382 32.6949 14.6441 32.8944C14.95 33.094 15.1762 33.3068 15.3225 33.5462C15.4688 33.7723 15.5353 33.9852 15.5353 34.2113C15.5353 34.4241 15.4555 34.6236 15.3225 34.8099C15.1629 35.0493 14.9633 35.2222 14.7239 35.3552C14.4978 35.4749 14.2584 35.568 13.979 35.6345L12.4627 36.0336C12.4095 36.0469 12.3297 36.0469 12.2233 36.0469C12.1168 36.0336 12.0104 36.0203 11.8907 35.9804L10.9064 35.6877L12.8351 35.1956ZM12.037 33.7191C11.9705 34.1315 12.2233 34.4108 12.8218 34.597C13.1144 34.6901 13.3539 34.7034 13.5534 34.6502C13.7529 34.597 13.8992 34.4906 13.979 34.3044C14.0189 34.2113 14.0456 34.1049 14.0323 34.0118C14.0189 33.9187 13.979 33.8255 13.9125 33.7324C13.846 33.6526 13.7396 33.5728 13.6199 33.493C13.5002 33.4265 13.3539 33.36 13.1943 33.3068C13.0346 33.2536 12.875 33.227 12.742 33.227C12.609 33.227 12.4893 33.2403 12.3829 33.2802C12.2898 33.3201 12.21 33.3733 12.1435 33.4398C12.0902 33.5462 12.0503 33.626 12.037 33.7191Z" fill="black"/>
<path d="M18.1694 19.2871C18.2492 19.2339 18.3157 19.194 18.3822 19.1408C18.4487 19.1009 18.5152 19.0477 18.5817 18.9945C18.1694 19.0743 17.7305 19.0477 17.2782 18.9146C16.9989 18.8348 16.7461 18.7018 16.4934 18.5156C16.254 18.3294 16.0412 18.1033 15.8816 17.8372C15.7219 17.5712 15.6155 17.252 15.5756 16.9061C15.5357 16.5603 15.5756 16.1746 15.6953 15.7489C15.8151 15.3632 15.988 15.0306 16.2407 14.7247C16.4801 14.4321 16.7728 14.1926 17.1186 14.0064C17.4644 13.8335 17.8369 13.7271 18.2492 13.6872C18.6616 13.6473 19.0872 13.7005 19.5395 13.8335C19.9917 13.9665 20.3907 14.166 20.71 14.4188C21.0292 14.6715 21.2686 14.9641 21.4416 15.2834C21.6145 15.6159 21.7209 15.975 21.7475 16.3608C21.7741 16.7465 21.7209 17.1456 21.6012 17.5712C21.4283 18.1299 21.2021 18.5954 20.8962 18.9812C20.5903 19.3669 20.2444 19.7127 19.8454 20.0187L17.225 22.0538C17.1053 22.1469 16.959 22.2001 16.7728 22.2267C16.5865 22.2533 16.387 22.24 16.1742 22.1735L14.5115 21.668L18.1694 19.2871ZM17.5442 16.1613C17.2915 17.0125 17.5442 17.5446 18.329 17.784C18.7148 17.9037 19.0473 17.8771 19.3266 17.7042C19.606 17.5313 19.8055 17.2653 19.9252 16.8795C19.9917 16.68 20.0183 16.4805 20.005 16.3076C19.9917 16.1346 19.9518 15.975 19.872 15.842C19.7922 15.709 19.6858 15.5893 19.5528 15.4829C19.4197 15.3765 19.2601 15.31 19.0872 15.2568C18.901 15.2035 18.7281 15.1902 18.5684 15.2035C18.4088 15.2302 18.2625 15.2701 18.1295 15.3632C17.9965 15.443 17.8768 15.5494 17.7837 15.6957C17.6906 15.842 17.5974 15.9883 17.5442 16.1613Z" fill="black"/>
<path opacity="0.54" d="M9.96232 3.28544C15.509 0.292616 22.4923 0.678356 27.6532 4.8018C27.9192 5.01462 28.1853 5.24075 28.438 5.46687C23.3702 1.92869 16.8392 1.74247 11.5851 4.57567C9.68299 5.59988 7.9538 7.00984 6.51725 8.80553C5.08069 10.6012 4.08309 12.6097 3.49783 14.6848C1.90166 20.431 3.52443 26.7625 8.08682 30.9258C7.80749 30.7263 7.52815 30.5268 7.26213 30.3139C2.08787 26.1772 0.185771 19.46 1.87505 13.3812C2.46031 11.3062 3.45792 9.29768 4.89447 7.50199C6.31773 5.7196 8.06022 4.30965 9.96232 3.28544Z" fill="url(#paint0_linear_2_206)"/>
<mask id="mask0_2_206" style="mask-type:alpha" maskUnits="userSpaceOnUse" x="1" y="1" width="28" height="30">
<path d="M9.96185 3.28543C15.5085 0.292604 22.4918 0.678345 27.6527 4.80179C27.9188 5.01461 28.1848 5.24073 28.4375 5.46686C23.3697 1.92868 16.8387 1.74246 11.5846 4.57566C9.68251 5.59987 7.95333 7.00982 6.51678 8.80552C5.08022 10.6012 4.08262 12.6097 3.49736 14.6847C1.90118 20.431 3.52395 26.7624 8.08635 30.9258C7.80702 30.7263 7.52768 30.5268 7.26165 30.3139C2.0874 26.1772 0.185298 19.46 1.87458 13.3812C2.45984 11.3062 3.45745 9.29767 4.894 7.50198C6.31725 5.71959 8.05975 4.30964 9.96185 3.28543Z" fill="url(#paint1_linear_2_206)"/>
</mask>
<g mask="url(#mask0_2_206)">
</g>
<mask id="mask1_2_206" style="mask-type:alpha" maskUnits="userSpaceOnUse" x="7" y="4" width="28" height="31">
<path d="M34.0243 22.5193C35.7136 16.4406 33.8115 9.72335 28.6372 5.58661C28.3712 5.37378 28.0919 5.17426 27.8125 4.97474C32.3749 9.13809 33.9977 15.4696 32.4015 21.2158C31.8163 23.2908 30.8187 25.2993 29.3821 27.095C27.9456 28.8907 26.2164 30.3007 24.3143 31.3249C19.0602 34.1581 12.5292 33.9586 7.46135 30.4337C7.71407 30.6598 7.96681 30.8859 8.24614 31.0988C13.4204 35.2355 20.3903 35.6079 25.937 32.6151C27.8391 31.5909 29.5683 30.181 31.0049 28.3853C32.4547 26.6029 33.4523 24.6077 34.0243 22.5193Z" fill="url(#paint2_linear_2_206)"/>
</mask>
<g mask="url(#mask1_2_206)">
<path opacity="0.34" d="M34.0243 22.5193C35.7136 16.4406 33.8115 9.72335 28.6372 5.58661C28.3712 5.37378 28.0919 5.17426 27.8125 4.97474C32.3749 9.13809 33.9977 15.4696 32.4015 21.2158C31.8163 23.2908 30.8187 25.2993 29.3821 27.095C27.9456 28.8907 26.2164 30.3007 24.3143 31.3249C19.0602 34.1581 12.5292 33.9586 7.46135 30.4337C7.71407 30.6598 7.96681 30.8859 8.24614 31.0988C13.4204 35.2355 20.3903 35.6079 25.937 32.6151C27.8391 31.5909 29.5683 30.181 31.0049 28.3853C32.4547 26.6029 33.4523 24.6077 34.0243 22.5193Z" fill="url(#paint3_linear_2_206)"/>
</g>
<defs>
<linearGradient id="paint0_linear_2_206" x1="19.0484" y1="4.20679" x2="4.86083" y2="21.1594" gradientUnits="userSpaceOnUse">
<stop stop-color="white"/>
<stop offset="0.5457" stop-color="white"/>
<stop offset="0.995" stop-color="white"/>
</linearGradient>
<linearGradient id="paint1_linear_2_206" x1="19.0479" y1="4.20677" x2="4.86036" y2="21.1594" gradientUnits="userSpaceOnUse">
<stop stop-color="#1A1A1A"/>
<stop offset="0.5457" stop-color="white"/>
<stop offset="0.995" stop-color="#1A1A1A"/>
</linearGradient>
<linearGradient id="paint2_linear_2_206" x1="31.1229" y1="13.8589" x2="17.7111" y2="31.4318" gradientUnits="userSpaceOnUse">
<stop stop-color="#1A1A1A"/>
<stop offset="0.5457" stop-color="white"/>
<stop offset="0.995" stop-color="#1A1A1A"/>
</linearGradient>
<linearGradient id="paint3_linear_2_206" x1="31.1229" y1="13.8589" x2="17.7111" y2="31.4318" gradientUnits="userSpaceOnUse">
<stop stop-color="white"/>
<stop offset="0.5457" stop-color="white"/>
<stop offset="0.995" stop-color="white"/>
</linearGradient>
</defs>
</svg>
