<svg width="36" height="36" viewBox="0 0 36 36" fill="none" xmlns="http://www.w3.org/2000/svg">
<path d="M33.8493 11.1322C37.3741 20.1505 32.9315 30.3128 23.9264 33.8377C14.9213 37.3626 4.74573 32.9199 1.22085 23.9148C-2.30403 14.9098 2.13865 4.73418 11.1437 1.2093C20.1488 -2.31557 30.3111 2.1271 33.8493 11.1322Z" fill="#39B200"/>
<path d="M25.3097 14.4841C26.9989 18.7805 24.8707 23.6355 20.5744 25.3248C16.278 27.0141 11.423 24.8858 9.73369 20.5895C8.04441 16.2931 10.1726 11.4381 14.469 9.74881C18.7787 8.05953 23.6337 10.1745 25.3097 14.4841Z" fill="#EAE9CE"/>
<path d="M14.1229 17.2242C14.0165 16.7853 14.0032 16.3862 14.0564 16.0138C14.1096 15.6413 14.216 15.3088 14.3889 15.0029C14.5618 14.6969 14.788 14.4309 15.0806 14.2048C15.3732 13.9787 15.7058 13.7924 16.0782 13.6461C16.4906 13.4865 16.863 13.4067 17.2354 13.3934C17.5946 13.3801 17.9271 13.4333 18.2197 13.5397C18.5124 13.6461 18.7651 13.8057 18.9779 14.0186C19.1908 14.2314 19.3504 14.4841 19.4701 14.7634C19.5765 15.0295 19.6297 15.2556 19.6563 15.4817C19.6829 15.6945 19.6696 15.9074 19.6297 16.0936C19.5898 16.2798 19.4967 16.4527 19.3903 16.6123C19.2706 16.7719 19.1375 16.9183 18.9646 17.0646C20.0021 17.0247 20.6938 17.4636 21.0529 18.3947C21.2259 18.8337 21.2924 19.246 21.2658 19.6318C21.2392 20.0175 21.1328 20.3633 20.9465 20.6826C20.7603 21.0018 20.5209 21.2811 20.215 21.5206C19.909 21.76 19.5632 21.9595 19.1907 22.1058C18.805 22.2654 18.4326 22.3586 18.1 22.3852C17.7675 22.4251 17.435 22.3985 17.129 22.3053C16.8231 22.2255 16.5305 22.0659 16.2378 21.8664C15.9452 21.6536 15.6659 21.3875 15.3865 21.055L16.0383 20.4298C16.2112 20.2702 16.3841 20.1771 16.5837 20.1505C16.7699 20.1239 16.9295 20.1638 17.0625 20.2702C17.3552 20.5097 17.6212 20.6693 17.8739 20.7358C18.1133 20.8023 18.3661 20.789 18.6188 20.6826C18.8183 20.6028 18.9779 20.5097 19.0843 20.3899C19.204 20.2702 19.2972 20.1372 19.3504 19.9909C19.4036 19.8446 19.4302 19.6983 19.4302 19.552C19.4302 19.4056 19.4036 19.2593 19.3504 19.1263C19.2839 18.9534 19.2041 18.7938 19.1242 18.6608C19.0444 18.5277 18.9247 18.4346 18.7784 18.3814C18.6321 18.3282 18.4193 18.3149 18.1798 18.3415C17.9271 18.3814 17.6079 18.4745 17.1955 18.6342L16.7167 17.4237C17.0625 17.2907 17.3285 17.1577 17.5148 17.0247C17.701 16.8917 17.834 16.7586 17.9138 16.6123C17.9936 16.4793 18.0202 16.333 18.0069 16.1867C17.9936 16.0404 17.9537 15.8941 17.8872 15.7344C17.7542 15.4152 17.5813 15.1891 17.3552 15.0827C17.129 14.963 16.863 14.9763 16.5438 15.096C16.291 15.2024 16.0915 15.3487 15.9718 15.5615C15.8521 15.7743 15.7856 15.9872 15.7989 16.2133C15.7989 16.4527 15.7457 16.6256 15.6526 16.7453C15.5462 16.8651 15.3732 16.9449 15.1205 17.0114L14.1229 17.2242Z" fill="black"/>
<path d="M29.9787 5.19971C28.981 7.20822 28.9012 9.97492 29.9521 12.6751C31.0029 15.362 32.9582 17.3439 35.0465 18.142C35.1263 15.8275 34.7539 13.4466 33.8494 11.1587C32.9449 8.8443 31.6014 6.83578 29.9787 5.19971Z" fill="#EAE9CE"/>
<path d="M33.716 14.1915C33.5431 14.2713 33.3569 14.2979 33.1707 14.2447C32.9711 14.1915 32.7849 14.0984 32.5854 13.9254C32.3859 13.7525 32.1996 13.5264 32.0267 13.2471C31.8405 12.9544 31.6809 12.6352 31.5346 12.2628C31.375 11.8637 31.2819 11.5046 31.2286 11.1854C31.1754 10.8661 31.1754 10.6001 31.2153 10.3873C31.2552 10.1744 31.3218 10.0148 31.4282 9.90842C31.5346 9.802 31.6543 9.74879 31.8006 9.74879C31.9336 9.74879 32.0533 9.7621 32.1597 9.802C32.2662 9.84191 32.3593 9.89511 32.4524 9.97492C32.5455 10.0547 32.6386 10.1478 32.7184 10.2543C32.7982 10.3607 32.8913 10.4937 32.9711 10.6267C32.8248 9.94832 32.9312 9.60248 33.2505 9.60248C33.3835 9.60248 33.5298 9.64238 33.6628 9.74879C33.7958 9.8419 33.9155 9.96162 34.0352 10.1212C34.155 10.2676 34.2614 10.4538 34.3678 10.6533C34.4742 10.8528 34.5673 11.0656 34.6604 11.2785C34.7535 11.5046 34.82 11.7174 34.8732 11.9036C34.9264 12.0898 34.9663 12.2761 34.9796 12.4357C34.9929 12.6086 35.0063 12.7682 34.9796 12.9278C34.9663 13.0875 34.9264 13.2471 34.8732 13.4067L34.5939 12.9544C34.5141 12.8347 34.4609 12.715 34.4343 12.5953C34.3944 12.4756 34.3944 12.3825 34.4077 12.3027C34.4476 12.1431 34.4609 11.9967 34.4476 11.8637C34.4343 11.7307 34.3944 11.5844 34.3412 11.4248C34.288 11.3051 34.2481 11.1987 34.1949 11.1188C34.1417 11.039 34.0885 10.9592 34.0352 10.906C33.982 10.8528 33.9288 10.8129 33.8889 10.7863C33.8357 10.7597 33.7958 10.7597 33.7559 10.7597C33.7027 10.773 33.6628 10.7863 33.6229 10.8129C33.583 10.8395 33.5697 10.8927 33.5697 10.9858C33.5697 11.0789 33.583 11.1987 33.6362 11.3716C33.6761 11.5445 33.7559 11.7706 33.8756 12.0499L33.4766 12.2495C33.3702 11.9834 33.2771 11.7839 33.1973 11.6243C33.1174 11.4647 33.0376 11.3583 32.9711 11.2785C32.9046 11.1987 32.8248 11.1454 32.7583 11.1321C32.6918 11.1188 32.6253 11.1188 32.5588 11.1321C32.4125 11.172 32.3194 11.2652 32.2928 11.4248C32.2528 11.5844 32.2928 11.8105 32.4125 12.0898C32.5056 12.316 32.612 12.4889 32.7317 12.6219C32.7982 12.7283 32.9179 12.7948 33.0243 12.7948C33.1307 12.8081 33.2239 12.8613 33.2904 12.9544C33.3569 13.0475 33.4234 13.1806 33.4766 13.3801L33.716 14.1915Z" fill="black"/>
<path d="M5.07832 29.8606C6.07593 27.8521 6.15574 25.0854 5.10492 22.3852C4.05411 19.6983 2.0988 17.7164 0.0104781 16.9183C-0.0693304 19.2327 0.303112 21.6137 1.20761 23.9015C2.11211 26.216 3.44225 28.2245 5.07832 29.8606Z" fill="#EAE9CE"/>
<path d="M1.32746 20.8688C1.50038 20.789 1.6866 20.7624 1.87282 20.8156C2.07234 20.8688 2.25856 20.9619 2.45808 21.1348C2.65761 21.3077 2.84382 21.5339 3.01674 21.8132C3.20296 22.1058 3.36258 22.4251 3.5089 22.7975C3.66852 23.1965 3.76162 23.5557 3.81483 23.8749C3.86804 24.1942 3.86803 24.4602 3.82813 24.673C3.78823 24.8858 3.72172 25.0454 3.60201 25.1519C3.4956 25.2583 3.37588 25.3115 3.22956 25.3115C3.09655 25.3115 2.99014 25.2982 2.87043 25.2583C2.76402 25.2184 2.67091 25.1652 2.5778 25.0854C2.48469 25.0055 2.39158 24.9124 2.31177 24.806C2.23196 24.6996 2.13885 24.5666 2.05904 24.4336C2.20536 25.112 2.09894 25.4578 1.77971 25.4578C1.64669 25.4578 1.51368 25.4179 1.36737 25.3115C1.23435 25.2184 1.11464 25.0987 0.994923 24.939C0.875211 24.7927 0.768799 24.6065 0.662388 24.407C0.555976 24.2075 0.46287 23.9946 0.36976 23.7818C0.27665 23.5557 0.210143 23.3429 0.156937 23.1566C0.103731 22.9704 0.0638245 22.7842 0.050523 22.6246C0.0372216 22.4517 0.0239202 22.2921 0.050523 22.1324C0.0638245 21.9728 0.103731 21.8132 0.156937 21.6536L0.436266 22.1058C0.502773 22.2255 0.569279 22.3453 0.595881 22.465C0.635786 22.5847 0.635786 22.6778 0.622485 22.7576C0.582581 22.9172 0.569281 23.0635 0.582582 23.1965C0.595884 23.3296 0.635785 23.4759 0.688991 23.6355C0.742197 23.7552 0.782102 23.8616 0.835308 23.9414C0.888513 24.0212 0.941718 24.101 0.994923 24.1543C1.04813 24.2075 1.10134 24.2474 1.14124 24.274C1.19445 24.3006 1.23435 24.3006 1.27426 24.3006C1.32746 24.2873 1.36737 24.274 1.40727 24.2474C1.44717 24.2208 1.46048 24.1676 1.46048 24.0744C1.46048 23.9813 1.44718 23.8616 1.39397 23.6887C1.35407 23.5158 1.27426 23.2897 1.15454 23.0103L1.55359 22.8108C1.66 23.0768 1.75311 23.2764 1.83291 23.436C1.91272 23.5956 1.99253 23.702 2.05904 23.7818C2.12555 23.8616 2.20536 23.9148 2.27186 23.9281C2.33837 23.9414 2.40488 23.9414 2.48469 23.9281C2.631 23.8882 2.72411 23.7951 2.75072 23.6355C2.79062 23.4759 2.75072 23.2498 2.631 22.9704C2.53789 22.7443 2.43148 22.5714 2.31177 22.4384C2.19205 22.3187 2.07234 22.2521 1.96593 22.2388C1.85952 22.2255 1.76641 22.1723 1.6999 22.0792C1.6334 21.9861 1.56689 21.8531 1.51368 21.6536L1.32746 20.8688Z" fill="black"/>
<path d="M5.19805 5.08004C7.20656 6.07765 9.97325 6.15746 12.6734 5.10664C15.3603 4.05583 17.3422 2.10052 18.1403 0.0121948C15.8259 -0.0676138 13.4449 0.304828 11.1571 1.20933C8.84263 2.11382 6.83412 3.44397 5.19805 5.08004Z" fill="#EAE9CE"/>
<path d="M14.19 1.3423C14.2698 1.51522 14.2964 1.70144 14.2432 1.88766C14.19 2.08718 14.0969 2.2734 13.924 2.47292C13.7511 2.67244 13.5249 2.85866 13.2456 3.03158C12.953 3.2178 12.6338 3.37742 12.2613 3.52373C11.8623 3.68335 11.5031 3.77646 11.1839 3.82966C10.8647 3.88287 10.5986 3.88287 10.3858 3.84297C10.173 3.80306 10.0134 3.73656 9.90697 3.63015C9.80055 3.52374 9.74734 3.40402 9.74734 3.25771C9.74734 3.12469 9.76065 3.00498 9.80055 2.89857C9.84046 2.79216 9.89366 2.69905 9.97347 2.60594C10.0533 2.51283 10.1464 2.41971 10.2528 2.33991C10.3592 2.2601 10.4922 2.16699 10.6252 2.08718C9.94687 2.2335 9.60103 2.12709 9.60103 1.80785C9.60103 1.67484 9.64093 1.52852 9.74734 1.4088C9.84046 1.27579 9.96017 1.15608 10.1198 1.03637C10.2661 0.916653 10.4523 0.810242 10.6518 0.703831C10.8514 0.597419 11.0642 0.504307 11.277 0.411197C11.5031 0.318087 11.716 0.25158 11.9022 0.198375C12.0884 0.145169 12.2746 0.105267 12.4342 0.0919659C12.6071 0.0786645 12.7668 0.0653631 12.9264 0.0919659C13.086 0.105267 13.2456 0.145169 13.4052 0.198375L12.953 0.477709C12.8333 0.544216 12.7136 0.610722 12.5939 0.637324C12.4741 0.677229 12.381 0.677229 12.3012 0.663928C12.1416 0.624024 11.9953 0.610719 11.8623 0.62402C11.7293 0.637322 11.5829 0.677228 11.4233 0.730434C11.3036 0.78364 11.1972 0.823545 11.1174 0.876751C11.0243 0.929956 10.9578 0.983161 10.9046 1.03637C10.8514 1.08957 10.8115 1.14278 10.7849 1.18268C10.7583 1.23589 10.7583 1.27579 10.7583 1.3157C10.7716 1.3689 10.7849 1.40881 10.8115 1.44871C10.8381 1.48862 10.8913 1.50191 10.9844 1.50191C11.0775 1.50191 11.1972 1.48861 11.3701 1.43541C11.543 1.3955 11.7692 1.31569 12.0485 1.19598L12.2347 1.59503C11.9687 1.70144 11.7692 1.79455 11.6095 1.87436C11.4499 1.95417 11.3435 2.03397 11.2637 2.10048C11.1839 2.16699 11.1307 2.2468 11.1174 2.3133C11.1041 2.37981 11.1041 2.44632 11.1174 2.52613C11.1573 2.67244 11.2504 2.76555 11.41 2.79215C11.5696 2.81876 11.7958 2.79215 12.0751 2.67244C12.3012 2.57933 12.4741 2.47292 12.6072 2.35321C12.7269 2.2335 12.7934 2.11378 12.8067 2.00737C12.82 1.90096 12.8732 1.80785 12.9663 1.74134C13.0594 1.67483 13.1924 1.60833 13.3919 1.55512L14.19 1.3423Z" fill="black"/>
<path d="M29.8586 29.9803C27.8501 28.9827 25.0834 28.9029 22.3832 29.9537C19.6963 31.0045 17.7144 32.9598 16.9163 35.0481C19.2308 35.1279 21.6117 34.7555 23.8996 33.851C26.214 32.9465 28.2225 31.6164 29.8586 29.9803Z" fill="#EAE9CE"/>
<path d="M20.8671 33.718C20.7873 33.5451 20.7607 33.3589 20.8139 33.1726C20.8671 32.9731 20.9602 32.7869 21.1331 32.5874C21.306 32.3878 21.5322 32.2016 21.8115 32.0287C22.1041 31.8425 22.4234 31.6829 22.7958 31.5366C23.1948 31.3769 23.554 31.2838 23.8732 31.2306C24.1925 31.1774 24.4585 31.1774 24.6713 31.2173C24.8841 31.2572 25.0437 31.3237 25.1502 31.4302C25.2566 31.5366 25.3098 31.6563 25.3098 31.8026C25.3098 31.9356 25.2965 32.0553 25.2566 32.1617C25.2167 32.2681 25.1635 32.3612 25.0836 32.4544C25.0038 32.5475 24.9107 32.6406 24.8043 32.7204C24.6979 32.8002 24.5649 32.8933 24.4319 32.9731C25.1103 32.8268 25.4561 32.9332 25.4561 33.2524C25.4561 33.3855 25.4162 33.5318 25.3098 33.6648C25.2167 33.7978 25.0969 33.9175 24.9373 34.0372C24.791 34.1569 24.6048 34.2634 24.4053 34.3698C24.2058 34.4762 23.9929 34.5693 23.7801 34.6624C23.554 34.7555 23.3412 34.822 23.1549 34.8752C22.9687 34.9284 22.7825 34.9683 22.6229 34.9816C22.45 34.9949 22.2903 35.0082 22.1307 34.9816C21.9711 34.9683 21.8115 34.9284 21.6519 34.8752L22.1041 34.5959C22.2238 34.5294 22.3436 34.4629 22.4633 34.4363C22.583 34.3964 22.6761 34.3964 22.7559 34.4097C22.9155 34.4496 23.0618 34.4629 23.1948 34.4496C23.3279 34.4363 23.4742 34.3964 23.6338 34.3432C23.7535 34.29 23.8599 34.25 23.9397 34.1968C24.0195 34.1436 24.0993 34.0904 24.1526 34.0372C24.2058 33.984 24.2457 33.9308 24.2723 33.8909C24.2989 33.8377 24.2989 33.7978 24.2989 33.7579C24.2856 33.7047 24.2723 33.6648 24.2457 33.6249C24.2191 33.585 24.1658 33.5717 24.0727 33.5584C23.9796 33.5584 23.8599 33.585 23.687 33.6249C23.5141 33.6648 23.288 33.7446 23.0086 33.8643L22.8224 33.4653C23.0884 33.3589 23.288 33.2657 23.4476 33.1859C23.6072 33.1061 23.7136 33.0263 23.7934 32.9598C23.8732 32.8933 23.9264 32.8135 23.9397 32.747C23.953 32.6805 23.953 32.614 23.9397 32.5475C23.8998 32.4012 23.8067 32.308 23.6471 32.2814C23.4875 32.2548 23.2613 32.2814 22.982 32.4012C22.7559 32.4943 22.583 32.6007 22.45 32.7204C22.3303 32.8401 22.2637 32.9598 22.2504 33.0662C22.2371 33.1726 22.1839 33.2657 22.0908 33.3323C21.9977 33.3988 21.8647 33.4653 21.6652 33.5185L20.8671 33.718Z" fill="black"/>
<mask id="mask0_2_95" style="mask-type:alpha" maskUnits="userSpaceOnUse" x="0" y="1" width="18" height="33">
<path d="M2.16564 11.079C4.6264 5.29286 10.2928 1.24922 16.8903 1.24922C17.2362 1.24922 17.582 1.26252 17.9145 1.28912C11.7693 1.68817 6.56841 5.61209 4.24066 11.079C3.40267 13.0609 2.92382 15.2423 2.92382 17.5302C2.92382 19.818 3.38937 21.9995 4.24066 23.9814C6.56841 29.4616 11.7693 33.3722 17.9145 33.7712C17.582 33.7978 17.2362 33.8111 16.8903 33.8111C10.2928 33.8111 4.6264 29.7675 2.16564 23.9814C1.32765 21.9995 0.848801 19.818 0.848801 17.5302C0.848801 15.2423 1.31435 13.0609 2.16564 11.079Z" fill="url(#paint0_linear_2_95)"/>
</mask>
<g mask="url(#mask0_2_95)">
<path opacity="0.54" d="M2.16545 11.079C4.62621 5.29285 10.2926 1.24921 16.8901 1.24921C17.236 1.24921 17.5818 1.26251 17.9143 1.28912C11.7691 1.68816 6.56822 5.61208 4.24047 11.079C3.40248 13.0609 2.92363 15.2423 2.92363 17.5302C2.92363 19.818 3.38918 21.9994 4.24047 23.9814C6.56822 29.4615 11.7691 33.3722 17.9143 33.7712C17.5818 33.7978 17.236 33.8111 16.8901 33.8111C10.2926 33.8111 4.62621 29.7675 2.16545 23.9814C1.32746 21.9994 0.84861 19.818 0.84861 17.5302C0.84861 15.2423 1.31416 13.0609 2.16545 11.079Z" fill="url(#paint1_linear_2_95)"/>
</g>
<mask id="mask1_2_95" style="mask-type:alpha" maskUnits="userSpaceOnUse" x="17" y="1" width="18" height="33">
<path d="M32.8778 11.079C30.417 5.29284 24.7506 1.24921 18.1531 1.24921C17.8073 1.24921 17.4747 1.26251 17.1289 1.28911C23.2742 1.68815 28.475 5.61207 30.8028 11.079C31.6408 13.0609 32.1196 15.2423 32.1196 17.5302C32.1196 19.818 31.6541 21.9994 30.8028 23.9814C28.475 29.4615 23.2742 33.3722 17.1289 33.7712C17.4614 33.7978 17.8073 33.8111 18.1531 33.8111C24.7506 33.8111 30.417 29.7675 32.8778 23.9814C33.7158 21.9994 34.1946 19.818 34.1946 17.5302C34.1946 15.2423 33.7158 13.0609 32.8778 11.079Z" fill="url(#paint2_linear_2_95)"/>
</mask>
<g mask="url(#mask1_2_95)">
<path opacity="0.34" d="M32.8778 11.079C30.417 5.29284 24.7506 1.24921 18.1531 1.24921C17.8073 1.24921 17.4747 1.26251 17.1289 1.28911C23.2742 1.68815 28.475 5.61207 30.8028 11.079C31.6408 13.0609 32.1196 15.2423 32.1196 17.5302C32.1196 19.818 31.6541 21.9994 30.8028 23.9814C28.475 29.4615 23.2742 33.3722 17.1289 33.7712C17.4614 33.7978 17.8073 33.8111 18.1531 33.8111C24.7506 33.8111 30.417 29.7675 32.8778 23.9814C33.7158 21.9994 34.1946 19.818 34.1946 17.5302C34.1946 15.2423 33.7158 13.0609 32.8778 11.079Z" fill="url(#paint3_linear_2_95)"/>
<path d="M35.7783 47.9505C20.7477 54.2953 6.15599 53.7367 3.18977 46.7268C0.210252 39.717 9.98681 28.8896 25.0174 22.5448C40.048 16.2 54.6397 16.7587 57.6059 23.7685C60.5721 30.7917 50.7956 41.6058 35.7783 47.9505Z" fill="url(#paint4_radial_2_95)"/>
<path d="M6.32799 49.6797C-8.50311 42.896 -18.0668 32.0154 -15.0474 25.378C-12.028 18.7406 2.44398 18.8736 17.2751 25.6573C32.1062 32.4411 41.6699 43.3216 38.6505 49.9591C35.631 56.5965 21.1591 56.4635 6.32799 49.6797Z" fill="url(#paint5_radial_2_95)"/>
</g>
<defs>
<linearGradient id="paint0_linear_2_95" x1="9.81782" y1="6.14003" x2="9.32274" y2="28.1684" gradientUnits="userSpaceOnUse">
<stop stop-color="#1A1A1A"/>
<stop offset="0.5457" stop-color="white"/>
<stop offset="0.995" stop-color="#1A1A1A"/>
</linearGradient>
<linearGradient id="paint1_linear_2_95" x1="9.81763" y1="6.14002" x2="9.32255" y2="28.1684" gradientUnits="userSpaceOnUse">
<stop stop-color="white"/>
<stop offset="0.5457" stop-color="white"/>
<stop offset="0.995" stop-color="white"/>
</linearGradient>
<linearGradient id="paint2_linear_2_95" x1="25.2249" y1="6.14001" x2="25.7199" y2="28.1684" gradientUnits="userSpaceOnUse">
<stop stop-color="#1A1A1A"/>
<stop offset="0.5457" stop-color="white"/>
<stop offset="0.995" stop-color="#1A1A1A"/>
</linearGradient>
<linearGradient id="paint3_linear_2_95" x1="25.2249" y1="6.14001" x2="25.7199" y2="28.1684" gradientUnits="userSpaceOnUse">
<stop stop-color="white"/>
<stop offset="0.5457" stop-color="white"/>
<stop offset="0.995" stop-color="white"/>
</linearGradient>
<radialGradient id="paint4_radial_2_95" cx="0" cy="0" r="1" gradientUnits="userSpaceOnUse" gradientTransform="translate(30.3919 35.2474) rotate(67.0285) scale(13.7969 29.5278)">
<stop stop-color="#325115"/>
<stop offset="0.0866" stop-color="#38551B"/>
<stop offset="0.2065" stop-color="#49602D"/>
<stop offset="0.3453" stop-color="#65724A"/>
<stop offset="0.4304" stop-color="#797F60"/>
<stop offset="0.4856" stop-color="#8A8F74"/>
<stop offset="0.6625" stop-color="#BCBFAF"/>
<stop offset="0.8134" stop-color="#E0E2DB"/>
<stop offset="0.9307" stop-color="#F7F7F5"/>
<stop offset="1" stop-color="white"/>
</radialGradient>
<radialGradient id="paint5_radial_2_95" cx="0" cy="0" r="1" gradientUnits="userSpaceOnUse" gradientTransform="translate(11.8086 37.6693) rotate(114.513) scale(13.1971 29.5292)">
<stop stop-color="#325115"/>
<stop offset="0.0866" stop-color="#38551B"/>
<stop offset="0.2065" stop-color="#49602D"/>
<stop offset="0.3453" stop-color="#65724A"/>
<stop offset="0.4304" stop-color="#797F60"/>
<stop offset="0.4856" stop-color="#8A8F74"/>
<stop offset="0.6625" stop-color="#BCBFAF"/>
<stop offset="0.8134" stop-color="#E0E2DB"/>
<stop offset="0.9307" stop-color="#F7F7F5"/>
<stop offset="1" stop-color="white"/>
</radialGradient>
</defs>
</svg>
