<svg width="36" height="36" viewBox="0 0 36 36" fill="none" xmlns="http://www.w3.org/2000/svg">
<path d="M33.5858 24.6537C29.6618 33.5124 19.3 37.5029 10.4413 33.5789C1.58251 29.655 -2.40791 19.2932 1.51601 10.4344C5.43993 1.57569 15.8017 -2.41474 24.6605 1.50918C33.5192 5.43311 37.5097 15.7949 33.5858 24.6537Z" fill="#FCCC00"/>
<path d="M25.2061 20.9293C23.3306 25.1591 18.3825 27.0612 14.1526 25.1857C9.92279 23.3102 8.02069 18.3621 9.89619 14.1322C11.7717 9.90238 16.7198 8.00028 20.9497 9.87578C25.1795 11.7513 27.0816 16.6994 25.2061 20.9293Z" fill="#EAE9CE"/>
<path d="M35.0895 17.7103C32.9613 18.4153 30.9261 20.3041 29.7556 22.9511C28.5851 25.5981 28.5452 28.378 29.4497 30.4265C31.1523 28.8569 32.5755 26.9149 33.5731 24.6536C34.584 22.3924 35.0629 20.0381 35.0895 17.7103Z" fill="#EAE9CE"/>
<path d="M32.4157 25.1857C32.4556 25.066 32.4955 24.9596 32.5354 24.8399C32.5753 24.7335 32.6285 24.6271 32.6685 24.5207C32.8148 24.2014 32.9611 23.9221 33.1074 23.7093C33.2537 23.4964 33.4 23.3368 33.533 23.2304C33.6661 23.124 33.7858 23.0708 33.9055 23.0708C34.0119 23.0708 34.105 23.1107 34.1848 23.1905C34.2779 23.2836 34.3444 23.4166 34.371 23.5763C34.3976 23.7359 34.3976 23.9088 34.3843 24.1083C34.3577 24.3078 34.3178 24.5073 34.2513 24.7468C34.1848 24.9729 34.105 25.2123 33.9853 25.4518C33.9188 25.5981 33.8523 25.7311 33.7858 25.8641C33.7193 25.9971 33.6528 26.1168 33.5729 26.2232C33.5064 26.3429 33.4266 26.4494 33.3601 26.5425C33.2803 26.6356 33.2138 26.7287 33.134 26.8085L33.0808 26.476C33.0808 26.4361 33.0808 26.3962 33.0808 26.3563C33.0941 26.3163 33.1074 26.2631 33.134 26.2099C33.1606 26.1434 33.2005 26.0769 33.2404 26.0237C33.2803 25.9705 33.3335 25.904 33.3734 25.8375C33.4266 25.771 33.4798 25.6912 33.533 25.6114C33.5862 25.5183 33.6395 25.4118 33.706 25.2788C33.7592 25.1458 33.8124 25.0261 33.839 24.9197C33.8656 24.8133 33.8789 24.7202 33.8789 24.6404C33.8789 24.5606 33.8656 24.494 33.839 24.4408C33.8124 24.3876 33.7725 24.3477 33.7193 24.3078C33.6129 24.2413 33.5064 24.2679 33.3867 24.3876C33.2537 24.5074 33.134 24.7069 33.0143 24.9995C32.9079 25.2522 32.8148 25.505 32.7616 25.7577L32.3359 26.476L30.6333 25.6513L32.3492 21.7141L32.6818 22.02C32.735 22.0732 32.7749 22.1264 32.8015 22.1929C32.8281 22.2594 32.8414 22.3392 32.8414 22.4323C32.8414 22.5254 32.8281 22.6318 32.7882 22.7516C32.7616 22.8713 32.7084 23.0043 32.6419 23.1639L31.9369 24.7867L32.4157 25.1857Z" fill="black"/>
<path d="M-7.62939e-05 17.3645C2.12815 16.6595 4.16327 14.7707 5.33379 12.1237C6.50432 9.47675 6.54422 6.69675 5.63973 4.64833C3.93714 6.2179 2.51389 8.15991 1.51629 10.4212C0.505377 12.6957 0.0265266 15.05 -7.62939e-05 17.3645Z" fill="#EAE9CE"/>
<path d="M2.88611 9.9955C2.8462 10.1152 2.8063 10.2349 2.76639 10.3413C2.72649 10.4477 2.68659 10.5542 2.63338 10.6606C2.48707 10.9798 2.34075 11.2591 2.19443 11.472C2.04812 11.6848 1.9018 11.8444 1.76879 11.9508C1.63577 12.0572 1.51606 12.1104 1.39635 12.1104C1.28994 12.1104 1.19683 12.0705 1.11702 11.9907C1.02391 11.8976 0.957403 11.7646 0.9308 11.605C0.904198 11.4454 0.904195 11.2724 0.917496 11.0729C0.944099 10.8734 0.984006 10.6739 1.05051 10.4344C1.11702 10.2083 1.19683 9.9689 1.31654 9.72947C1.38305 9.58316 1.44955 9.45014 1.51606 9.31713C1.58257 9.18411 1.64908 9.0644 1.72888 8.95799C1.79539 8.83827 1.8752 8.73186 1.94171 8.63875C2.02152 8.54564 2.08803 8.45253 2.16783 8.35942L2.22104 8.69196C2.22104 8.73186 2.22104 8.77177 2.22104 8.81167C2.20773 8.86488 2.19444 8.90478 2.16783 8.95799C2.14123 9.02449 2.10132 9.091 2.06142 9.14421C2.02152 9.19741 1.96831 9.26392 1.92841 9.33043C1.8752 9.39694 1.82199 9.47674 1.76879 9.55655C1.71558 9.64966 1.66238 9.75607 1.59587 9.88909C1.54267 10.0221 1.48946 10.1418 1.46285 10.2482C1.43625 10.3546 1.42295 10.4477 1.42295 10.5276C1.42295 10.6074 1.43625 10.6739 1.46285 10.7271C1.48946 10.7803 1.52936 10.8202 1.58257 10.8601C1.68898 10.9266 1.79539 10.9 1.9151 10.7803C2.04812 10.6606 2.16783 10.461 2.28755 10.1684C2.39396 9.91569 2.48707 9.66296 2.54027 9.41024L2.96592 8.69196L4.6685 9.51665L2.95262 13.4539L2.62008 13.1479C2.56688 13.0947 2.52697 13.0415 2.50037 12.975C2.47377 12.9085 2.46046 12.8287 2.46046 12.7356C2.46046 12.6425 2.47376 12.5361 2.51367 12.4164C2.54027 12.2966 2.59348 12.1636 2.65999 12.004L3.36496 10.3812L2.88611 9.9955Z" fill="black"/>
<path d="M17.7176 0.0061264C18.4226 2.13436 20.3114 4.16948 22.9584 5.34C25.6053 6.51053 28.3853 6.55043 30.4338 5.64593C28.8642 3.94335 26.9222 2.5201 24.6609 1.52249C22.3997 0.51158 20.0453 0.0194278 17.7176 0.0061264Z" fill="#EAE9CE"/>
<path d="M25.2594 2.99893C25.1397 2.95903 25.0199 2.91912 24.9135 2.87922C24.8071 2.83931 24.7007 2.79941 24.5943 2.7462C24.2751 2.59989 23.9957 2.45357 23.7829 2.30726C23.5701 2.16094 23.4105 2.01463 23.3041 1.88161C23.1977 1.7486 23.1444 1.62889 23.1444 1.50917C23.1444 1.40276 23.1843 1.30965 23.2642 1.22984C23.3573 1.13673 23.4903 1.07023 23.6499 1.04362C23.8095 1.01702 23.9824 1.01702 24.182 1.03032C24.3815 1.05692 24.581 1.09683 24.8204 1.16334C25.0466 1.22984 25.286 1.30965 25.5254 1.42936C25.6717 1.49587 25.8047 1.56238 25.9377 1.62889C26.0708 1.69539 26.1905 1.7752 26.2969 1.84171C26.4166 1.90822 26.523 1.98802 26.6161 2.05453C26.7092 2.13434 26.8023 2.20085 26.8955 2.26735L26.5762 2.30726C26.5363 2.30726 26.4964 2.30726 26.4565 2.30726C26.4033 2.29396 26.3634 2.28066 26.3102 2.25405C26.2437 2.22745 26.1772 2.18755 26.124 2.14764C26.0708 2.10774 26.0043 2.05453 25.9377 2.01463C25.8712 1.96142 25.7914 1.90821 25.7116 1.85501C25.6185 1.8018 25.5121 1.7486 25.3791 1.68209C25.2461 1.62888 25.1264 1.57568 25.0199 1.54908C24.9135 1.52247 24.8204 1.50917 24.7406 1.50917C24.6608 1.50917 24.5943 1.52247 24.5411 1.56238C24.4879 1.58898 24.448 1.62888 24.4081 1.68209C24.3416 1.7885 24.3682 1.89491 24.4879 2.01463C24.6076 2.14764 24.8071 2.26735 25.0998 2.38707C25.3525 2.49348 25.6052 2.58659 25.8579 2.63979L26.5762 3.06544L25.7515 4.76802L21.8143 3.05214L22.1202 2.7196C22.1734 2.6664 22.2266 2.62649 22.2932 2.59989C22.3597 2.57329 22.4395 2.55998 22.5326 2.55998C22.6257 2.55998 22.7321 2.57329 22.8518 2.61319C22.9715 2.63979 23.1045 2.693 23.2642 2.75951L24.8869 3.46448L25.2594 2.99893Z" fill="black"/>
<path d="M17.3845 35.082C16.6796 32.9538 14.7908 30.9187 12.1438 29.7481C9.4968 28.5776 6.71679 28.5377 4.66837 29.4422C6.23794 31.1448 8.17995 32.568 10.4412 33.5656C12.7024 34.5765 15.0568 35.0554 17.3845 35.082Z" fill="#EAE9CE"/>
<path d="M10.0022 32.2089C10.1219 32.2488 10.2416 32.2887 10.348 32.3286C10.4544 32.3685 10.5608 32.4084 10.6672 32.4616C10.9865 32.6079 11.2658 32.7542 11.4786 32.9006C11.6915 33.0469 11.8511 33.1932 11.9575 33.3262C12.0639 33.4592 12.1171 33.5789 12.1171 33.6987C12.1171 33.8051 12.0772 33.8982 11.9974 33.978C11.9043 34.0711 11.7713 34.1376 11.6116 34.1642C11.452 34.1908 11.2791 34.1908 11.0796 34.1775C10.8801 34.1509 10.6805 34.111 10.4411 34.0445C10.215 33.978 9.97557 33.8982 9.73614 33.7785C9.58983 33.712 9.45681 33.6454 9.3238 33.5789C9.19078 33.5124 9.07107 33.4326 8.96466 33.3661C8.84494 33.2996 8.73854 33.2198 8.64543 33.1533C8.55232 33.0735 8.45921 33.007 8.3661 32.9272L8.69863 32.874C8.73854 32.874 8.77844 32.874 8.81835 32.874C8.87155 32.8873 8.91145 32.9006 8.96466 32.9272C9.03116 32.9538 9.09768 32.9937 9.15088 33.0336C9.20409 33.0735 9.27059 33.1267 9.3371 33.1666C9.40361 33.2198 9.48341 33.273 9.56322 33.3262C9.65633 33.3794 9.76274 33.4326 9.89576 33.4991C10.0288 33.5523 10.1485 33.6055 10.2549 33.6321C10.3613 33.6587 10.4544 33.6721 10.5342 33.6721C10.614 33.6721 10.6805 33.6587 10.7337 33.6321C10.787 33.6055 10.8269 33.5656 10.8668 33.5124C10.9333 33.406 10.9067 33.2996 10.787 33.1799C10.6672 33.0469 10.4677 32.9272 10.1751 32.8075C9.92236 32.701 9.66963 32.6079 9.41691 32.5547L8.69863 32.1291L9.52332 30.4265L13.4605 32.1424L13.1546 32.4749C13.1014 32.5281 13.0482 32.568 12.9817 32.5946C12.9152 32.6212 12.8354 32.6345 12.7423 32.6345C12.6492 32.6345 12.5427 32.6212 12.423 32.5813C12.3033 32.5547 12.1703 32.5015 12.0107 32.435L10.3879 31.73L10.0022 32.2089Z" fill="black"/>
<path d="M17.1453 16.4334C17.3049 16.4733 17.4645 16.5132 17.6108 16.5664C17.7572 16.6196 17.8902 16.6728 18.0232 16.726C18.4488 16.9123 18.7947 17.1384 19.0607 17.4177C19.3267 17.6837 19.5262 17.9897 19.646 18.3089C19.7657 18.6281 19.8189 18.9607 19.8056 19.3198C19.7923 19.6657 19.6992 20.0248 19.5529 20.3706C19.3666 20.8096 19.1139 21.1687 18.808 21.4614C18.502 21.754 18.1429 21.9668 17.7572 22.0998C17.3714 22.2328 16.9591 22.2993 16.5068 22.2727C16.0679 22.2461 15.6156 22.1397 15.1634 21.9402C14.8973 21.8205 14.6579 21.6875 14.4451 21.5279C14.2323 21.3682 14.0328 21.1953 13.8731 21.0091C13.7002 20.8229 13.5539 20.6234 13.4342 20.4238C13.3145 20.2243 13.2081 20.0248 13.1283 19.812L13.9795 19.3331C14.0727 19.2799 14.1525 19.2533 14.2456 19.2533C14.3387 19.2533 14.4185 19.2666 14.5116 19.2932C14.618 19.3464 14.7111 19.4129 14.7909 19.5193C14.8574 19.6258 14.9373 19.7322 15.0304 19.8652C15.1102 19.9849 15.2166 20.1179 15.3496 20.2376C15.4826 20.3706 15.6555 20.477 15.895 20.5835C16.1211 20.6899 16.3339 20.7298 16.5334 20.7298C16.7329 20.7298 16.9059 20.6766 17.0655 20.5968C17.2251 20.5036 17.3714 20.3839 17.4911 20.2376C17.6108 20.078 17.7173 19.9051 17.8104 19.7056C17.9833 19.3065 17.9966 18.9607 17.8636 18.668C17.7306 18.3621 17.4645 18.1227 17.0522 17.9498C16.693 17.7902 16.3073 17.697 15.895 17.6837L14.9506 16.9256L17.4113 13.1746L21.5614 14.9836L21.2554 15.6885C21.2022 15.8082 21.1357 15.9014 21.0559 15.9812C20.9761 16.061 20.883 16.1142 20.7766 16.1541C20.6702 16.194 20.5372 16.2073 20.3908 16.1807C20.2445 16.1674 20.0849 16.1142 19.8987 16.0344L17.97 15.1831L17.1453 16.4334Z" fill="black"/>
<mask id="mask0_2_132" style="mask-type:alpha" maskUnits="userSpaceOnUse" x="0" y="0" width="30" height="30">
<path d="M11.3187 2.06783C17.1581 -0.246617 24.0349 0.923909 28.6771 5.61931C28.9165 5.85874 29.1426 6.11147 29.3688 6.37749C24.7532 2.29396 18.302 1.34955 12.7686 3.54429C10.7734 4.34237 8.88456 5.5395 7.26179 7.14898C5.62571 8.75845 4.41529 10.634 3.5906 12.6292C1.34265 18.136 2.22055 24.6005 6.25088 29.256C5.99816 29.0298 5.74543 28.8037 5.506 28.551C0.863801 23.8556 -0.25352 16.9787 2.12744 11.1527C2.93882 9.15749 4.16256 7.2953 5.79863 5.67252C7.43471 4.06305 9.32351 2.86592 11.3187 2.06783Z" fill="url(#paint0_linear_2_132)"/>
</mask>
<g mask="url(#mask0_2_132)">
<path opacity="0.54" d="M11.3191 2.06785C17.1584 -0.246602 24.0352 0.923924 28.6774 5.61933C28.9169 5.85875 29.143 6.11148 29.3691 6.37751C24.7535 2.29397 18.3023 1.34957 12.7689 3.5443C10.7737 4.34239 8.8849 5.53952 7.26213 7.14899C5.62605 8.75846 4.41562 10.634 3.59093 12.6292C1.34299 18.136 2.22089 24.6005 6.25122 29.256C5.99849 29.0298 5.74576 28.8037 5.50634 28.551C0.864137 23.8556 -0.253184 16.9788 2.12777 11.1527C2.93916 9.15751 4.16289 7.29531 5.79897 5.67254C7.43505 4.06306 9.32385 2.86593 11.3191 2.06785Z" fill="url(#paint1_linear_2_132)"/>
</g>
<mask id="mask1_2_132" style="mask-type:alpha" maskUnits="userSpaceOnUse" x="5" y="5" width="30" height="30">
<path d="M32.9474 23.9221C35.3283 18.096 34.211 11.2192 29.5688 6.5238C29.3294 6.28438 29.0766 6.04495 28.8239 5.81882C32.8675 10.4743 33.7454 16.9388 31.4842 22.4456C30.6728 24.4408 29.4491 26.303 27.813 27.9258C26.1769 29.5353 24.3014 30.7457 22.3062 31.5305C16.7728 33.7252 10.3216 32.7808 5.70602 28.6973C5.93215 28.95 6.15827 29.2027 6.3977 29.4555C11.0399 34.1509 17.9167 35.3347 23.7561 33.007C25.7513 32.2089 27.6401 31.0117 29.2629 29.4023C30.9122 27.7795 32.136 25.9173 32.9474 23.9221Z" fill="url(#paint2_linear_2_132)"/>
</mask>
<g mask="url(#mask1_2_132)">
<path opacity="0.34" d="M32.9474 23.9221C35.3283 18.096 34.211 11.2192 29.5688 6.5238C29.3294 6.28438 29.0766 6.04495 28.8239 5.81882C32.8675 10.4743 33.7454 16.9388 31.4842 22.4456C30.6728 24.4408 29.4491 26.303 27.813 27.9258C26.1769 29.5353 24.3014 30.7457 22.3062 31.5305C16.7728 33.7252 10.3216 32.7808 5.70602 28.6973C5.93215 28.95 6.15827 29.2027 6.3977 29.4555C11.0399 34.1509 17.9167 35.3347 23.7561 33.007C25.7513 32.2089 27.6401 31.0117 29.2629 29.4023C30.9122 27.7795 32.136 25.9173 32.9474 23.9221Z" fill="url(#paint3_linear_2_132)"/>
<path d="M8.75182 51.9349C-6.332 45.7098 -16.215 34.949 -13.3286 27.8859C-10.4288 20.8361 4.14953 20.1578 19.2333 26.3828C34.3172 32.6079 44.2001 43.3688 41.3137 50.4318C38.4273 57.4949 23.8489 58.1732 8.75182 51.9349Z" fill="url(#paint4_radial_2_132)"/>
<path d="M-13.1953 32.2222C-18.8085 16.8989 -17.7976 2.42697 -10.9607 -0.0869987C-4.11045 -2.60097 5.98533 7.77414 11.5985 23.1107C17.2117 38.4339 16.2008 52.9059 9.3639 55.4199C2.51366 57.9338 -7.59543 47.5454 -13.1953 32.2222Z" fill="url(#paint5_radial_2_132)"/>
</g>
<defs>
<linearGradient id="paint0_linear_2_132" x1="20.2231" y1="4.03851" x2="4.20546" y2="19.1967" gradientUnits="userSpaceOnUse">
<stop stop-color="#1A1A1A"/>
<stop offset="0.5457" stop-color="white"/>
<stop offset="0.995" stop-color="#1A1A1A"/>
</linearGradient>
<linearGradient id="paint1_linear_2_132" x1="20.2234" y1="4.03853" x2="4.20579" y2="19.1967" gradientUnits="userSpaceOnUse">
<stop stop-color="white"/>
<stop offset="0.5457" stop-color="white"/>
<stop offset="0.995" stop-color="white"/>
</linearGradient>
<linearGradient id="paint2_linear_2_132" x1="31.0722" y1="14.9984" x2="15.7515" y2="30.8611" gradientUnits="userSpaceOnUse">
<stop stop-color="#1A1A1A"/>
<stop offset="0.5457" stop-color="white"/>
<stop offset="0.995" stop-color="#1A1A1A"/>
</linearGradient>
<linearGradient id="paint3_linear_2_132" x1="31.0722" y1="14.9984" x2="15.7515" y2="30.8611" gradientUnits="userSpaceOnUse">
<stop stop-color="white"/>
<stop offset="0.5457" stop-color="white"/>
<stop offset="0.995" stop-color="white"/>
</linearGradient>
<radialGradient id="paint4_radial_2_132" cx="0" cy="0" r="1" gradientUnits="userSpaceOnUse" gradientTransform="translate(14.0044 39.168) rotate(112.325) scale(13.8093 29.5524)">
<stop stop-color="#325115"/>
<stop offset="0.0866" stop-color="#38551B"/>
<stop offset="0.2065" stop-color="#49602D"/>
<stop offset="0.3453" stop-color="#65724A"/>
<stop offset="0.4304" stop-color="#797F60"/>
<stop offset="0.4856" stop-color="#8A8F74"/>
<stop offset="0.6625" stop-color="#BCBFAF"/>
<stop offset="0.8134" stop-color="#E0E2DB"/>
<stop offset="0.9307" stop-color="#F7F7F5"/>
<stop offset="1" stop-color="white"/>
</radialGradient>
<radialGradient id="paint5_radial_2_132" cx="0" cy="0" r="1" gradientUnits="userSpaceOnUse" gradientTransform="translate(-0.801809 27.6549) rotate(159.8) scale(13.2087 29.5552)">
<stop stop-color="#325115"/>
<stop offset="0.0866" stop-color="#38551B"/>
<stop offset="0.2065" stop-color="#49602D"/>
<stop offset="0.3453" stop-color="#65724A"/>
<stop offset="0.4304" stop-color="#797F60"/>
<stop offset="0.4856" stop-color="#8A8F74"/>
<stop offset="0.6625" stop-color="#BCBFAF"/>
<stop offset="0.8134" stop-color="#E0E2DB"/>
<stop offset="0.9307" stop-color="#F7F7F5"/>
<stop offset="1" stop-color="white"/>
</radialGradient>
</defs>
</svg>
