<svg width="38" height="38" viewBox="0 0 38 38" fill="none" xmlns="http://www.w3.org/2000/svg">
<path d="M35.9493 13.1499C39.115 22.3279 34.2467 32.3306 25.0554 35.5096C15.8774 38.6754 5.86145 33.7937 2.69571 24.6158C-0.470036 15.4378 4.41159 5.4351 13.5896 2.25606C22.7676 -0.896377 32.7835 3.97194 35.9493 13.1499Z" fill="#086DFF"/>
<path d="M27.2499 16.156C28.7663 20.5322 26.4385 25.3207 22.0491 26.8238C17.6729 28.3401 12.8844 26.0124 11.3813 21.6229C9.86496 17.2468 12.1927 12.4582 16.5822 10.9552C20.9583 9.43882 25.7469 11.7666 27.2499 16.156Z" fill="#EAE9CE"/>
<path d="M32.305 7.0313C31.2276 8.99991 31.0281 11.7799 31.9725 14.52C32.9169 17.2601 34.7924 19.3218 36.8541 20.213C37.027 17.8853 36.7477 15.5043 35.9363 13.1633C35.1382 10.8222 33.8746 8.76048 32.305 7.0313Z" fill="#EAE9CE"/>
<path d="M36.375 12.7642C36.3351 12.7376 36.3085 12.711 36.2686 12.6711C36.2287 12.6445 36.2021 12.6179 36.1621 12.5913C36.3218 12.8174 36.4548 13.0835 36.5612 13.4027C36.6277 13.5889 36.6809 13.7884 36.7075 14.0012C36.7474 14.2141 36.7474 14.4136 36.7341 14.6264C36.7208 14.8392 36.6809 15.0255 36.6011 15.2117C36.5213 15.3979 36.4016 15.5708 36.2287 15.7038C36.0557 15.8368 35.8695 15.9034 35.6567 15.9034C35.4439 15.9034 35.2177 15.8368 34.9783 15.6905C34.7389 15.5442 34.4995 15.3181 34.2866 15.0255C34.0605 14.7195 33.861 14.3471 33.7147 13.8948C33.5551 13.4426 33.462 13.0302 33.4487 12.6578C33.4354 12.2854 33.4753 11.9794 33.5684 11.7267C33.6615 11.4873 33.7945 11.3011 33.9807 11.168C34.1536 11.0483 34.3531 10.9818 34.5926 10.9818C34.8852 10.9818 35.1379 11.035 35.3774 11.1414C35.6035 11.2479 35.8296 11.3942 36.0424 11.5671L37.2662 12.5514C37.3194 12.5913 37.3593 12.6578 37.4125 12.7376C37.4657 12.8307 37.5189 12.9371 37.5588 13.0568L37.8913 14.0279L36.375 12.7642ZM35.6567 14.2939C36.0291 14.1077 36.1089 13.7219 35.8961 13.15C35.7897 12.8706 35.67 12.6578 35.5104 12.5248C35.3508 12.3918 35.1778 12.3386 34.9783 12.3785C34.8719 12.4051 34.7788 12.445 34.7123 12.5115C34.6458 12.578 34.5926 12.6711 34.566 12.7775C34.5394 12.8839 34.5261 13.0036 34.5394 13.15C34.5527 13.2963 34.5926 13.4426 34.6458 13.6022C34.699 13.7618 34.7655 13.8948 34.8453 14.0146C34.9251 14.121 35.0049 14.2008 35.098 14.2673C35.1911 14.3205 35.2843 14.3604 35.3774 14.3604C35.4838 14.3471 35.5769 14.3338 35.6567 14.2939Z" fill="black"/>
<path d="M6.32719 30.7344C7.4046 28.7658 7.60412 25.9858 6.65972 23.2457C5.71532 20.5056 3.83982 18.4439 1.7781 17.5527C1.60518 19.8805 1.88451 22.2614 2.69589 24.6025C3.50728 26.9568 4.75762 29.0185 6.32719 30.7344Z" fill="#EAE9CE"/>
<path d="M2.40347 24.7621C2.44338 24.7887 2.46997 24.8153 2.50988 24.8552C2.54978 24.8818 2.57639 24.9084 2.61629 24.935C2.45667 24.7089 2.32366 24.4429 2.21724 24.1236C2.15074 23.9374 2.09754 23.7379 2.07094 23.5251C2.04434 23.3122 2.03103 23.1127 2.04433 22.8999C2.05763 22.6871 2.11083 22.5009 2.17734 22.3146C2.25715 22.1284 2.37686 21.9555 2.56308 21.8225C2.736 21.6895 2.92222 21.623 3.13505 21.623C3.34787 21.623 3.574 21.6895 3.81342 21.8358C4.05285 21.9821 4.27897 22.2082 4.50509 22.5009C4.73122 22.8068 4.93074 23.1792 5.07705 23.6315C5.23667 24.0837 5.32979 24.4961 5.34309 24.8685C5.35639 25.241 5.31648 25.5469 5.22337 25.7996C5.13026 26.039 4.99725 26.2253 4.81103 26.3583C4.63811 26.478 4.43859 26.5445 4.19917 26.5445C3.90653 26.5445 3.6538 26.4913 3.41438 26.3849C3.18825 26.2785 2.96213 26.1321 2.7493 25.9592L1.52557 24.9749C1.48567 24.935 1.43246 24.8685 1.37926 24.7887C1.32605 24.6956 1.27285 24.6025 1.23294 24.4695L0.900406 23.4985L2.40347 24.7621ZM3.12174 23.2324C2.7493 23.4187 2.66949 23.8044 2.88232 24.3764C2.98873 24.669 3.10844 24.8685 3.26806 25.0015C3.42768 25.1345 3.6006 25.1877 3.80012 25.1478C3.90653 25.1212 3.99965 25.0813 4.06615 25.0148C4.13266 24.9483 4.18586 24.8552 4.21246 24.7488C4.23906 24.6424 4.25237 24.5094 4.23907 24.3764C4.22577 24.23 4.18586 24.0837 4.13265 23.9241C4.07945 23.7645 4.01294 23.6315 3.93313 23.5118C3.85332 23.4054 3.77352 23.3255 3.68041 23.259C3.5873 23.2058 3.49419 23.1659 3.40108 23.1659C3.29467 23.1792 3.20155 23.1925 3.12174 23.2324Z" fill="black"/>
<path d="M7.471 5.90063C9.43962 6.97805 12.2196 7.17757 14.9597 6.23317C17.6998 5.28877 19.7615 3.41326 20.6527 1.35154C18.325 1.17862 15.944 1.45795 13.603 2.26934C11.2486 3.06742 9.18689 4.33106 7.471 5.90063Z" fill="#EAE9CE"/>
<path d="M13.4967 1.9102C13.4701 1.9501 13.4435 1.9767 13.4036 2.01661C13.377 2.05651 13.3504 2.08311 13.3238 2.12302C13.5499 1.9634 13.816 1.83038 14.1352 1.72397C14.3214 1.65747 14.5209 1.60426 14.7338 1.57766C14.9466 1.53776 15.1461 1.53776 15.3589 1.55106C15.5717 1.56436 15.758 1.60426 15.9442 1.68407C16.1304 1.76388 16.3033 1.88359 16.4363 2.05651C16.5693 2.22943 16.6359 2.41565 16.6359 2.62847C16.6359 2.84129 16.5693 3.06742 16.423 3.30685C16.2767 3.54627 16.0506 3.7724 15.758 3.99852C15.452 4.22464 15.0796 4.42417 14.6273 4.57048C14.1751 4.7301 13.7627 4.82321 13.3903 4.83651C13.0179 4.84981 12.7119 4.8099 12.4592 4.71679C12.2198 4.62368 12.0336 4.49067 11.9006 4.30445C11.7808 4.13153 11.7143 3.93201 11.7143 3.69258C11.7143 3.39995 11.7675 3.14723 11.8739 2.9078C11.9804 2.68168 12.1267 2.45556 12.2996 2.24273L13.2839 1.019C13.3238 0.979094 13.3903 0.925887 13.4701 0.872682C13.5632 0.819476 13.6696 0.766269 13.7894 0.726365L14.7604 0.393829L13.4967 1.9102ZM15.0131 2.62847C14.8269 2.25603 14.4411 2.17622 13.8559 2.38904C13.5765 2.49546 13.3637 2.61517 13.2307 2.77479C13.0977 2.9344 13.0445 3.10732 13.0844 3.30685C13.111 3.41326 13.1509 3.50637 13.2174 3.57288C13.2839 3.63938 13.377 3.69258 13.4834 3.71919C13.5898 3.74579 13.7228 3.75909 13.8559 3.74579C14.0022 3.73249 14.1485 3.69259 14.3081 3.63938C14.4677 3.58618 14.6007 3.51967 14.7204 3.43986C14.8269 3.36005 14.9067 3.28024 14.9732 3.18713C15.0264 3.09402 15.0663 3.00091 15.0663 2.9078C15.0796 2.80139 15.053 2.70828 15.0131 2.62847Z" fill="black"/>
<path d="M31.1744 31.8783C29.2058 30.8009 26.4258 30.6014 23.6857 31.5458C20.9456 32.4902 18.8839 34.3657 17.9927 36.4274C20.3204 36.6003 22.7014 36.321 25.0424 35.5096C27.3968 34.6982 29.4585 33.4479 31.1744 31.8783Z" fill="#EAE9CE"/>
<path d="M25.4014 35.8155C25.428 35.7756 25.4546 35.749 25.4812 35.7091C25.5078 35.6692 25.5344 35.6426 25.561 35.6027C25.3349 35.7623 25.0689 35.8953 24.7496 36.0017C24.5634 36.0682 24.3639 36.1214 24.1511 36.148C23.9382 36.1879 23.7387 36.1879 23.5259 36.1746C23.3131 36.1613 23.1268 36.1214 22.9406 36.0416C22.7544 35.9618 22.5815 35.8421 22.4485 35.6692C22.3155 35.4963 22.249 35.31 22.249 35.0972C22.249 34.8711 22.3155 34.6583 22.4618 34.4188C22.6081 34.1794 22.8342 33.94 23.1268 33.7272C23.4328 33.5011 23.8052 33.3015 24.2575 33.1552C24.7097 32.9956 25.1221 32.9025 25.4945 32.8892C25.8669 32.8759 26.1729 32.9158 26.4256 33.0089C26.665 33.102 26.8512 33.235 26.9843 33.4212C27.104 33.5942 27.1705 33.7937 27.1705 34.0331C27.1705 34.3257 27.1173 34.5785 27.0109 34.8179C26.9045 35.044 26.7581 35.2701 26.5852 35.483L25.6009 36.7067C25.561 36.7466 25.4945 36.7998 25.4147 36.853C25.3216 36.9062 25.2285 36.9594 25.0955 36.9993L24.1244 37.3319L25.4014 35.8155ZM23.8717 35.0972C24.0579 35.4697 24.4437 35.5495 25.0157 35.3366C25.295 35.2302 25.5078 35.1105 25.6408 34.9509C25.7738 34.7913 25.827 34.6184 25.7871 34.4188C25.7605 34.3124 25.7206 34.2193 25.6541 34.1528C25.5876 34.0863 25.4945 34.0331 25.3881 34.0065C25.2817 33.9799 25.162 33.9666 25.0157 33.9799C24.8693 33.9932 24.723 34.0331 24.5634 34.0863C24.4038 34.1395 24.2708 34.206 24.1511 34.2858C24.0446 34.3656 23.9648 34.4455 23.8983 34.5386C23.8451 34.6317 23.8052 34.7248 23.8052 34.8179C23.8185 34.9243 23.8318 35.0041 23.8717 35.0972Z" fill="black"/>
<path d="M20.2802 19.8272C20.3068 19.7474 20.3334 19.6676 20.3733 19.5878C20.3999 19.508 20.4266 19.4282 20.4532 19.3617C20.1605 19.6676 19.8014 19.907 19.3491 20.0667C19.0831 20.1598 18.7905 20.213 18.4845 20.1997C18.1786 20.1997 17.886 20.1332 17.5933 20.0135C17.3007 19.8937 17.0347 19.7075 16.7953 19.4548C16.5558 19.2021 16.3563 18.8695 16.21 18.4572C16.077 18.0714 16.0238 17.699 16.0371 17.3133C16.0637 16.9275 16.1568 16.5684 16.3297 16.2225C16.5026 15.8767 16.7421 15.5708 17.048 15.2914C17.3539 15.0121 17.7264 14.7993 18.1786 14.653C18.6309 14.4934 19.0565 14.4269 19.4688 14.4402C19.8679 14.4535 20.2403 14.5466 20.5729 14.7062C20.9054 14.8658 21.198 15.0919 21.4508 15.3979C21.7035 15.6905 21.903 16.0496 22.0493 16.462C22.2355 17.0073 22.3287 17.5261 22.3154 18.0182C22.302 18.5104 22.2222 18.9892 22.0892 19.4681L21.1847 22.6604C21.1448 22.7935 21.0517 22.9398 20.9187 23.0728C20.7857 23.2058 20.6128 23.3122 20.4 23.3787L18.7639 23.9507L20.2802 19.8272ZM17.9259 17.6857C18.2185 18.5237 18.7506 18.803 19.5221 18.537C19.8945 18.404 20.1472 18.1912 20.2802 17.8852C20.3999 17.5793 20.4 17.2468 20.2669 16.8743C20.2004 16.6748 20.1073 16.5019 19.9876 16.3689C19.8679 16.2358 19.7482 16.1294 19.6019 16.0629C19.4556 15.9964 19.3092 15.9565 19.1363 15.9565C18.9634 15.9565 18.7905 15.9831 18.6176 16.0496C18.4446 16.1161 18.285 16.1959 18.1653 16.3157C18.0456 16.4221 17.9658 16.5551 17.8993 16.7014C17.8461 16.8477 17.8062 17.0073 17.8195 17.1669C17.8328 17.3399 17.8727 17.5128 17.9259 17.6857Z" fill="black"/>
<mask id="mask0_2_169" style="mask-type:alpha" maskUnits="userSpaceOnUse" x="2" y="2" width="19" height="34">
<path d="M4.18614 11.7799C6.89964 6.08687 12.739 2.26936 19.3498 2.53539C19.6956 2.54869 20.0414 2.5753 20.374 2.6152C14.2021 2.76152 8.81504 6.47262 6.26116 11.8597C5.33006 13.8017 4.77141 15.9698 4.6783 18.271C4.58519 20.5721 4.95763 22.7802 5.72911 24.7887C7.84404 30.3753 12.8853 34.512 19.0305 35.1638C18.6847 35.1771 18.3522 35.1771 18.0063 35.1638C11.3955 34.8845 5.87542 30.6014 3.65408 24.7089C2.8959 22.6871 2.51016 20.479 2.60327 18.1912C2.69638 15.9033 3.25504 13.7352 4.18614 11.7799Z" fill="url(#paint0_linear_2_169)"/>
</mask>
<g mask="url(#mask0_2_169)">
<path opacity="0.54" d="M4.18561 11.7799C6.8991 6.08686 12.7384 2.26935 19.3492 2.53538C19.6951 2.54868 20.0409 2.57528 20.3734 2.61519C14.2016 2.7615 8.8145 6.4726 6.26063 11.8597C5.32953 13.8017 4.77088 15.9698 4.67777 18.271C4.58466 20.5721 4.9571 22.7802 5.72858 24.7887C7.84351 30.3753 12.8848 34.512 19.03 35.1638C18.6842 35.1771 18.3516 35.1771 18.0058 35.1638C11.395 34.8845 5.87489 30.6014 3.65355 24.7089C2.89537 22.687 2.50963 20.479 2.60274 18.1912C2.69585 15.9033 3.25451 13.7352 4.18561 11.7799Z" fill="url(#paint1_linear_2_169)"/>
</g>
<mask id="mask1_2_169" style="mask-type:alpha" maskUnits="userSpaceOnUse" x="18" y="2" width="19" height="34">
<path d="M34.9785 13.0568C32.7572 7.16428 27.2371 2.86792 20.6263 2.58859C20.2804 2.57529 19.9346 2.57529 19.602 2.58859C25.7473 3.24036 30.8019 7.3904 32.9035 12.9637C33.6617 14.9855 34.0474 17.1936 33.9543 19.4814C33.8612 21.7826 33.3025 23.9507 32.3714 25.8927C29.8042 31.2798 24.4305 34.9909 18.2586 35.1372C18.5911 35.1771 18.937 35.2037 19.2828 35.217C25.8936 35.4963 31.7463 31.6655 34.4464 25.9725C35.3775 24.0305 35.9362 21.8624 36.0293 19.5612C36.1224 17.2867 35.7367 15.0786 34.9785 13.0568Z" fill="url(#paint2_linear_2_169)"/>
</mask>
<g mask="url(#mask1_2_169)">
<path opacity="0.34" d="M34.9785 13.0568C32.7572 7.16428 27.2371 2.86792 20.6263 2.58859C20.2804 2.57529 19.9346 2.57529 19.602 2.58859C25.7473 3.24036 30.8019 7.3904 32.9035 12.9637C33.6617 14.9855 34.0474 17.1936 33.9543 19.4814C33.8612 21.7826 33.3025 23.9507 32.3714 25.8927C29.8042 31.2798 24.4305 34.9909 18.2586 35.1372C18.5911 35.1771 18.937 35.2037 19.2828 35.217C25.8936 35.4963 31.7463 31.6655 34.4464 25.9725C35.3775 24.0305 35.9362 21.8624 36.0293 19.5612C36.1224 17.2867 35.7367 15.0786 34.9785 13.0568Z" fill="url(#paint3_linear_2_169)"/>
<path d="M36.3486 50.1412C21.0254 55.8741 6.42041 54.7169 3.73352 47.5607C1.04663 40.4046 11.2887 29.9629 26.612 24.23C41.9352 18.4971 56.5402 19.6543 59.2271 26.8105C61.914 33.9534 51.6719 44.4083 36.3486 50.1412Z" fill="url(#paint4_radial_2_169)"/>
<path d="M6.76591 50.6467C-7.81246 43.2378 -16.9505 31.9316 -13.6518 25.4006C-10.353 18.8829 4.15883 19.6011 18.7372 27.0233C33.3156 34.4455 42.467 45.7517 39.1549 52.2694C35.8561 58.8004 21.3576 58.0689 6.76591 50.6467Z" fill="url(#paint5_radial_2_169)"/>
</g>
<defs>
<linearGradient id="paint0_linear_2_169" x1="12.0637" y1="7.15215" x2="10.6546" y2="29.2131" gradientUnits="userSpaceOnUse">
<stop stop-color="#1A1A1A"/>
<stop offset="0.5457" stop-color="white"/>
<stop offset="0.995" stop-color="#1A1A1A"/>
</linearGradient>
<linearGradient id="paint1_linear_2_169" x1="12.0631" y1="7.15213" x2="10.6541" y2="29.2131" gradientUnits="userSpaceOnUse">
<stop stop-color="white"/>
<stop offset="0.5457" stop-color="white"/>
<stop offset="0.995" stop-color="white"/>
</linearGradient>
<linearGradient id="paint2_linear_2_169" x1="27.5088" y1="7.79047" x2="27.0921" y2="29.8926" gradientUnits="userSpaceOnUse">
<stop stop-color="#1A1A1A"/>
<stop offset="0.5457" stop-color="white"/>
<stop offset="0.995" stop-color="#1A1A1A"/>
</linearGradient>
<linearGradient id="paint3_linear_2_169" x1="27.5088" y1="7.79047" x2="27.0921" y2="29.8926" gradientUnits="userSpaceOnUse">
<stop stop-color="white"/>
<stop offset="0.5457" stop-color="white"/>
<stop offset="0.995" stop-color="white"/>
</linearGradient>
<radialGradient id="paint4_radial_2_169" cx="0" cy="0" r="1" gradientUnits="userSpaceOnUse" gradientTransform="translate(31.4817 37.1817) rotate(69.3984) scale(13.8419 29.6252)">
<stop stop-color="#325115"/>
<stop offset="0.0866" stop-color="#38551B"/>
<stop offset="0.2065" stop-color="#49602D"/>
<stop offset="0.3453" stop-color="#65724A"/>
<stop offset="0.4304" stop-color="#797F60"/>
<stop offset="0.4856" stop-color="#8A8F74"/>
<stop offset="0.6625" stop-color="#BCBFAF"/>
<stop offset="0.8134" stop-color="#E0E2DB"/>
<stop offset="0.9307" stop-color="#F7F7F5"/>
<stop offset="1" stop-color="white"/>
</radialGradient>
<radialGradient id="paint5_radial_2_169" cx="0" cy="0" r="1" gradientUnits="userSpaceOnUse" gradientTransform="translate(12.7539 38.8407) rotate(116.876) scale(13.2411 29.6248)">
<stop stop-color="#325115"/>
<stop offset="0.0866" stop-color="#38551B"/>
<stop offset="0.2065" stop-color="#49602D"/>
<stop offset="0.3453" stop-color="#65724A"/>
<stop offset="0.4304" stop-color="#797F60"/>
<stop offset="0.4856" stop-color="#8A8F74"/>
<stop offset="0.6625" stop-color="#BCBFAF"/>
<stop offset="0.8134" stop-color="#E0E2DB"/>
<stop offset="0.9307" stop-color="#F7F7F5"/>
<stop offset="1" stop-color="white"/>
</radialGradient>
</defs>
</svg>
