<svg width="38" height="38" viewBox="0 0 38 38" fill="none" xmlns="http://www.w3.org/2000/svg">
<path d="M34.8493 24.7946C31.6702 33.7597 21.8272 38.4551 12.862 35.2894C3.89683 32.1104 -0.798577 22.2673 2.36716 13.3021C5.54621 4.33698 15.3893 -0.358431 24.3544 2.80731C33.3329 5.98635 38.0283 15.8294 34.8493 24.7946Z" fill="#FF0000"/>
<path d="M26.3228 21.7751C24.8064 26.0582 20.111 28.2928 15.828 26.7898C11.5449 25.2734 9.31026 20.578 10.8133 16.295C12.3297 12.0119 17.0251 9.77725 21.3081 11.2803C25.5912 12.7967 27.8392 17.4921 26.3228 21.7751Z" fill="#EAE9CE"/>
<path d="M35.8068 17.8912C33.7717 18.7424 31.9228 20.7377 30.9784 23.4245C30.034 26.1114 30.2069 28.8249 31.2444 30.7669C32.8007 29.091 34.0377 27.0824 34.8491 24.7946C35.6605 22.5068 35.9664 20.1657 35.8068 17.8912Z" fill="#EAE9CE"/>
<path d="M36.0733 22.1077C36.4458 22.254 36.7251 22.4536 36.9379 22.7063C37.1507 22.959 37.2837 23.2649 37.3636 23.5975C37.4301 23.93 37.4434 24.3025 37.3902 24.7015C37.337 25.1005 37.2172 25.5262 37.0576 25.9518C36.8847 26.3775 36.6985 26.7632 36.4591 27.0958C36.2329 27.4283 35.9802 27.6943 35.7009 27.8938C35.4215 28.0934 35.1156 28.2131 34.7831 28.253C34.4505 28.2929 34.1047 28.253 33.7456 28.1067C33.3731 27.9603 33.0938 27.7608 32.881 27.5081C32.6681 27.2554 32.5351 26.9627 32.4553 26.6169C32.3755 26.2844 32.3755 25.9119 32.4287 25.5129C32.4819 25.1138 32.6016 24.7015 32.7613 24.2759C32.9342 23.8502 33.1337 23.4645 33.3598 23.1319C33.5859 22.7994 33.8387 22.5334 34.1313 22.3338C34.4106 22.1343 34.7166 22.0146 35.0491 21.9614C35.355 21.9215 35.7009 21.9747 36.0733 22.1077ZM35.3683 23.8901C35.0757 23.7837 34.823 23.7172 34.6102 23.7172C34.3973 23.7172 34.2111 23.7571 34.0648 23.8236C33.9185 23.9034 33.7855 24.0098 33.6924 24.1295C33.5992 24.2625 33.5194 24.4089 33.4529 24.5552C33.3997 24.7015 33.3598 24.8611 33.3332 25.0207C33.3066 25.1803 33.3332 25.34 33.3997 25.4996C33.4662 25.6592 33.5726 25.8055 33.7323 25.9385C33.8919 26.0848 34.118 26.2046 34.4106 26.3243C34.7033 26.444 34.956 26.4972 35.1688 26.4972C35.3816 26.4972 35.5546 26.4706 35.7142 26.3908C35.8605 26.3243 35.9935 26.2179 36.0866 26.0848C36.1797 25.9518 36.2595 25.8188 36.326 25.6592C36.3792 25.5129 36.4191 25.3533 36.4457 25.1803C36.459 25.0207 36.4458 24.8611 36.3792 24.7015C36.3127 24.5419 36.2063 24.3956 36.0467 24.2492C35.8871 24.1295 35.661 24.0098 35.3683 23.8901Z" fill="black"/>
<path d="M1.42248 20.1923C3.4576 19.341 5.29319 17.3458 6.25089 14.6589C7.1953 11.972 7.02238 9.25851 5.98487 7.3165C4.4286 8.99248 3.19157 11.001 2.38018 13.2888C1.55549 15.5767 1.26286 17.9177 1.42248 20.1923Z" fill="#EAE9CE"/>
<path d="M4.64168 10.4423C4.8678 10.6818 5.02742 10.9744 5.10722 11.3069C5.20033 11.6395 5.22693 12.0119 5.18703 12.411C5.14713 12.81 5.05402 13.2356 4.921 13.6746C4.77469 14.1135 4.60177 14.4993 4.38895 14.8451C4.17612 15.191 3.9367 15.4703 3.67067 15.6831C3.40464 15.8959 3.09871 16.0289 2.77947 16.0954C2.46024 16.162 2.1011 16.1221 1.72866 16.0023C1.35622 15.8826 1.05029 15.6964 0.837466 15.457C0.611342 15.2176 0.451727 14.9249 0.371918 14.5924C0.278808 14.2598 0.252198 13.9007 0.292102 13.4884C0.332007 13.0893 0.411821 12.6637 0.558137 12.2247C0.704453 11.7858 0.877374 11.4 1.0902 11.0409C1.30302 10.6951 1.54245 10.4157 1.80847 10.2029C2.0745 9.99009 2.38043 9.84377 2.69967 9.79057C3.0189 9.72406 3.37804 9.75067 3.75048 9.88368C4.12292 10.0034 4.41555 10.1896 4.64168 10.4423ZM2.38044 11.5597C2.16761 11.573 1.99469 11.6129 1.83507 11.6927C1.68876 11.7725 1.56905 11.8922 1.47594 12.0252C1.38283 12.1582 1.31632 12.3045 1.26311 12.4642C1.20991 12.6238 1.1833 12.7834 1.17 12.943C1.1567 13.1026 1.1966 13.2622 1.26311 13.4086C1.32962 13.5549 1.44933 13.7012 1.62225 13.8342C1.78186 13.9672 2.02129 14.0869 2.31393 14.18C2.60656 14.2732 2.85928 14.3264 3.07211 14.3131C3.28493 14.2998 3.45785 14.2599 3.60417 14.18C3.75048 14.1002 3.87019 13.9938 3.9633 13.8608C4.05641 13.7278 4.12292 13.5815 4.17613 13.4219C4.22933 13.2622 4.25594 13.1026 4.26924 12.943C4.28254 12.7834 4.25594 12.6238 4.17613 12.4642C4.10962 12.3045 3.98991 12.1715 3.83029 12.0252C3.67067 11.8922 3.43125 11.7725 3.13862 11.6794C2.84599 11.5996 2.59326 11.5597 2.38044 11.5597Z" fill="black"/>
<path d="M17.4508 1.84964C18.3021 3.88476 20.2973 5.73366 22.9842 6.67806C25.6711 7.62246 28.3846 7.44954 30.3266 6.41203C28.6506 4.85576 26.6421 3.61872 24.3676 2.80734C22.0797 1.99595 19.7254 1.69002 17.4508 1.84964Z" fill="#EAE9CE"/>
<path d="M22.2662 1.34418C22.4924 1.14466 22.7584 0.998343 23.0643 0.918534C23.3703 0.838726 23.7028 0.812124 24.0752 0.852028C24.4477 0.891932 24.8334 0.971739 25.2324 1.10475C25.6315 1.23777 25.9906 1.39738 26.3099 1.5969C26.6291 1.78312 26.8818 2.00925 27.0681 2.24868C27.2676 2.5014 27.3873 2.76743 27.4405 3.06006C27.4937 3.3527 27.4671 3.67193 27.3607 4.01777C27.2543 4.36361 27.0813 4.62963 26.8552 4.84246C26.6291 5.04198 26.3764 5.18829 26.0704 5.2681C25.7645 5.34791 25.432 5.37452 25.0728 5.34791C24.7004 5.32131 24.328 5.2282 23.9289 5.10849C23.5299 4.97547 23.1707 4.81585 22.8515 4.61633C22.5323 4.41681 22.2795 4.20399 22.08 3.95126C21.8805 3.69853 21.7608 3.4325 21.6943 3.13987C21.6411 2.84724 21.6677 2.52801 21.7741 2.18217C21.8805 1.82303 22.0534 1.5437 22.2662 1.34418ZM23.3037 3.4059C23.317 3.60542 23.3569 3.76504 23.4368 3.89806C23.5166 4.03107 23.6097 4.13748 23.7427 4.23059C23.8624 4.3104 24.0087 4.3769 24.1417 4.43011C24.288 4.48332 24.4344 4.50992 24.5807 4.50992C24.727 4.52322 24.8733 4.48332 25.0063 4.43011C25.1393 4.3636 25.2724 4.25719 25.3921 4.11088C25.5118 3.96456 25.6182 3.75174 25.7113 3.47241C25.8044 3.20638 25.8443 2.96696 25.831 2.78074C25.831 2.58121 25.7778 2.42159 25.7113 2.28858C25.6448 2.15557 25.5384 2.04916 25.4187 1.96935C25.299 1.88954 25.1659 1.82303 25.0196 1.76982C24.8733 1.71662 24.727 1.69002 24.5807 1.69002C24.4344 1.67672 24.288 1.70332 24.1417 1.76982C23.9954 1.83633 23.8624 1.94275 23.7427 2.08906C23.623 2.23538 23.5166 2.4482 23.4235 2.72753C23.3304 2.98026 23.2904 3.21968 23.3037 3.4059Z" fill="black"/>
<path d="M19.7794 36.2338C18.9281 34.1987 16.9329 32.3498 14.246 31.4054C11.5591 30.461 8.84565 30.6339 6.90364 31.6714C8.57962 33.2277 10.5881 34.4647 12.8627 35.2761C15.1505 36.1008 17.4916 36.3934 19.7794 36.2338Z" fill="#EAE9CE"/>
<path d="M10.0164 33.5203C10.2558 33.2942 10.5484 33.1346 10.881 33.0548C11.2135 32.9617 11.5859 32.9351 11.985 32.975C12.384 33.0149 12.8097 33.108 13.2486 33.241C13.6876 33.3873 14.0733 33.5602 14.4191 33.7731C14.765 33.9859 15.0443 34.2253 15.2571 34.4913C15.4699 34.7574 15.603 35.0633 15.6695 35.3825C15.736 35.7018 15.6961 36.0609 15.5764 36.4333C15.4567 36.8058 15.2704 37.1117 15.031 37.3245C14.7916 37.5507 14.4989 37.7103 14.1664 37.8034C13.8339 37.8965 13.4747 37.9231 13.0624 37.8832C12.6634 37.8433 12.2377 37.7635 11.7988 37.6172C11.3598 37.4709 10.9741 37.2979 10.6282 37.0851C10.2824 36.8723 10.0031 36.6329 9.79024 36.3668C9.57742 36.1008 9.4311 35.7949 9.37789 35.4756C9.31138 35.1564 9.33799 34.7973 9.471 34.4248C9.59071 34.0391 9.77694 33.7465 10.0164 33.5203ZM11.147 35.7816C11.1603 35.9944 11.2002 36.1673 11.2933 36.3269C11.3731 36.4733 11.4928 36.593 11.6258 36.6861C11.7589 36.7792 11.9052 36.8457 12.0648 36.8989C12.2244 36.9521 12.384 36.9787 12.5436 36.992C12.7033 37.0053 12.8629 36.9654 13.0092 36.8989C13.1555 36.8324 13.3018 36.7127 13.4348 36.5398C13.5678 36.3801 13.6876 36.1407 13.7807 35.8481C13.8738 35.5555 13.927 35.3027 13.9137 35.0899C13.9004 34.8771 13.8605 34.7042 13.7807 34.5578C13.7009 34.4115 13.5944 34.2918 13.4614 34.1987C13.3284 34.1056 13.1821 34.0391 13.0225 33.9859C12.8629 33.9327 12.7033 33.9061 12.5436 33.8928C12.384 33.8795 12.2244 33.9194 12.0648 33.9859C11.9052 34.0524 11.7722 34.1721 11.6258 34.3317C11.4928 34.4913 11.3731 34.7308 11.28 35.0234C11.1869 35.316 11.1337 35.5688 11.147 35.7816Z" fill="black"/>
<path d="M21.4415 20.5248C21.1622 21.2298 20.8563 21.8151 20.4971 22.2673C20.138 22.7196 19.7656 23.0787 19.3665 23.3048C18.9675 23.5443 18.5551 23.664 18.1162 23.6906C17.6772 23.7172 17.2516 23.6374 16.8259 23.4777C16.4003 23.3048 16.0279 23.0787 15.7352 22.7595C15.4293 22.4535 15.2165 22.0811 15.0835 21.6288C14.9504 21.1899 14.9105 20.6711 14.9637 20.0992C15.017 19.5272 15.1766 18.8755 15.4559 18.1705C15.7352 17.4655 16.0412 16.8802 16.4003 16.428C16.7461 15.9624 17.1319 15.6166 17.5309 15.3905C17.93 15.1511 18.3423 15.018 18.768 15.0047C19.1936 14.9781 19.6192 15.0579 20.0582 15.2176C20.4838 15.3905 20.8563 15.6166 21.1622 15.9358C21.4681 16.2418 21.681 16.6142 21.8273 17.0665C21.9603 17.5054 22.0002 18.0242 21.9603 18.5961C21.8805 19.1814 21.7076 19.8199 21.4415 20.5248ZM19.6591 19.8332C19.872 19.2745 20.0183 18.8089 20.0848 18.4232C20.1513 18.0375 20.1646 17.7182 20.138 17.4788C20.0981 17.2261 20.0183 17.0399 19.8986 16.9068C19.7789 16.7738 19.6458 16.6807 19.4995 16.6142C19.3532 16.5477 19.1803 16.5211 19.0074 16.5477C18.8345 16.561 18.6482 16.6541 18.462 16.8137C18.2758 16.9733 18.063 17.2128 17.8635 17.5453C17.6506 17.8778 17.4378 18.3168 17.225 18.8755C16.9989 19.4341 16.8658 19.913 16.786 20.2987C16.7195 20.6844 16.6929 20.9904 16.7328 21.2431C16.7594 21.4958 16.8392 21.6821 16.959 21.8151C17.0787 21.9481 17.2117 22.0412 17.358 22.1077C17.5043 22.1609 17.6772 22.1875 17.8502 22.1742C18.0231 22.1609 18.2093 22.0678 18.4088 21.9082C18.6083 21.7486 18.8079 21.5091 19.0207 21.1766C19.2335 20.8441 19.4463 20.3918 19.6591 19.8332Z" fill="black"/>
<mask id="mask0_2_56" style="mask-type:alpha" maskUnits="userSpaceOnUse" x="17" y="2" width="18" height="34">
<path d="M33.4129 12.6238C30.992 6.93076 25.4187 2.95363 18.9143 2.95363C18.5818 2.95363 18.2359 2.96693 17.9034 2.99354C23.9556 3.39258 29.0766 7.24999 31.3644 12.6371C32.1891 14.5791 32.6547 16.7339 32.6547 18.9819C32.6547 21.2431 32.1891 23.3846 31.3644 25.3266C29.0766 30.7137 23.9556 34.5711 17.9034 34.9702C18.2359 34.9968 18.5685 35.0101 18.9143 35.0101C25.4054 35.0101 30.9787 31.0196 33.4129 25.3399C34.2376 23.3979 34.7031 21.2431 34.7031 18.9952C34.7031 16.7073 34.2376 14.5658 33.4129 12.6238Z" fill="url(#paint0_linear_2_56)"/>
</mask>
<g mask="url(#mask0_2_56)">
<path opacity="0.6" d="M33.4131 12.6238C30.9922 6.93076 25.4189 2.95364 18.9145 2.95364C18.582 2.95364 18.2362 2.96694 17.9036 2.99354C23.9558 3.39259 29.0768 7.25 31.3647 12.6371C32.1894 14.5791 32.6549 16.7339 32.6549 18.9819C32.6549 21.2431 32.1894 23.3846 31.3647 25.3266C29.0768 30.7137 23.9558 34.5711 17.9036 34.9702C18.2362 34.9968 18.5687 35.0101 18.9145 35.0101C25.4056 35.0101 30.9789 31.0197 33.4131 25.3399C34.2378 23.3979 34.7033 21.2431 34.7033 18.9952C34.7033 16.7073 34.2378 14.5658 33.4131 12.6238Z" fill="url(#paint1_linear_2_56)"/>
<path opacity="0.62" d="M23.7027 5.66714C24.6471 7.95499 22.6253 10.9611 19.1669 12.3844C15.7219 13.8076 12.1571 13.1026 11.1994 10.8148C10.255 8.52695 12.2768 5.52083 15.7352 4.09757C19.1935 2.67432 22.7583 3.3793 23.7027 5.66714Z" fill="url(#paint2_radial_2_56)"/>
<path d="M33.8653 49.9343C11.5322 56.9042 -8.36678 56.8244 -10.5881 49.7348C-12.8095 42.6584 3.48479 31.2591 25.8179 24.2891C48.151 17.3192 68.0499 17.399 70.2713 24.4886C72.4926 31.565 56.1984 42.9643 33.8653 49.9343Z" fill="url(#paint3_radial_2_56)"/>
<path d="M2.52721 47.4735C-11.9181 40.8627 -21.2424 30.2615 -18.2895 23.797C-15.3499 17.3325 -1.25039 17.4655 13.195 24.0763C27.6403 30.6871 36.9646 41.2884 34.0117 47.7528C31.0721 54.204 16.9726 54.0843 2.52721 47.4735Z" fill="url(#paint4_radial_2_56)"/>
<path d="M-6.73076 24.5019C-14.3259 12.2646 -16.0418 -0.411633 -10.5749 -3.8168C-5.10798 -7.22196 5.46666 -0.0524903 13.0618 12.1848C20.6569 24.4221 22.3728 37.0984 16.9059 40.5036C11.439 43.8954 0.851056 36.7393 -6.73076 24.5019Z" fill="url(#paint5_radial_2_56)"/>
<path d="M-8.5394 28.0268C-15.2433 12.6238 -15.5093 -2.11422 -9.13796 -4.89422C-2.76658 -7.67422 7.82136 2.55458 14.5253 17.9443C21.2292 33.3474 21.4952 48.0854 15.1238 50.8654C8.75246 53.6454 -1.83548 43.4166 -8.5394 28.0268Z" fill="url(#paint6_radial_2_56)"/>
<g opacity="0.47">
<path opacity="0.47" d="M19.9253 16.8935C19.8056 16.7605 19.6726 16.6541 19.5262 16.6009C19.3799 16.5344 19.207 16.5211 19.0341 16.5344C18.8612 16.5477 18.6749 16.6408 18.4754 16.8004C18.2759 16.96 18.0764 17.1994 17.8636 17.532C17.6507 17.8645 17.4379 18.3035 17.2118 18.8621C16.9857 19.4208 16.8393 19.8863 16.7595 20.2721C16.6797 20.6578 16.6664 20.9637 16.693 21.2165C16.7196 21.4692 16.7994 21.6554 16.9059 21.7884C17.0256 21.9214 17.1586 22.0146 17.3049 22.0811C17.4512 22.1476 17.6241 22.1609 17.7971 22.1476C17.97 22.1343 18.1695 22.0412 18.3557 21.8815C18.5552 21.7219 18.7548 21.4825 18.9676 21.15C19.1804 20.8307 19.3932 20.3785 19.6194 19.8198C19.8455 19.2612 19.9918 18.7956 20.0716 18.4099C20.1514 18.0241 20.1647 17.7049 20.1248 17.4655C20.1248 17.2127 20.045 17.0265 19.9253 16.8935Z" fill="url(#paint7_linear_2_56)"/>
<path opacity="0.47" d="M21.4018 11.2803C17.1321 9.71073 12.4101 11.9055 10.8405 16.1752C9.27093 20.445 11.4657 25.167 15.7354 26.7366C20.0052 28.3061 24.7272 26.1114 26.2968 21.8416C27.853 17.5719 25.6716 12.8499 21.4018 11.2803ZM21.4151 20.5381C21.1358 21.2431 20.8033 21.815 20.4574 22.2806C20.0983 22.7328 19.7126 23.0787 19.3135 23.3048C18.9145 23.5309 18.4888 23.6639 18.0632 23.6772C17.6242 23.6905 17.1986 23.624 16.7729 23.4511C16.3473 23.2782 15.9882 23.0388 15.6822 22.7195C15.3896 22.4136 15.1768 22.0279 15.0438 21.5889C14.9107 21.1367 14.8841 20.6312 14.9373 20.0592C14.9905 19.4873 15.1635 18.8488 15.4561 18.1438C15.7354 17.4389 16.0547 16.8669 16.4138 16.4014C16.7729 15.9491 17.1454 15.6033 17.5577 15.3771C17.9568 15.151 18.3691 15.018 18.8081 15.0047C19.2337 14.9914 19.6594 15.0579 20.0983 15.2308C20.5239 15.4037 20.8831 15.6432 21.189 15.9624C21.495 16.2683 21.7078 16.6541 21.8408 17.093C21.9738 17.5453 22.0137 18.0507 21.9472 18.6227C21.8674 19.1947 21.7078 19.8331 21.4151 20.5381Z" fill="url(#paint8_linear_2_56)"/>
</g>
</g>
<defs>
<linearGradient id="paint0_linear_2_56" x1="25.8486" y1="6.62123" x2="26.4405" y2="32.961" gradientUnits="userSpaceOnUse">
<stop offset="0.164" stop-color="#1A1A1A"/>
<stop offset="0.2177" stop-color="#4A4A4A"/>
<stop offset="0.2958" stop-color="#8A8A8A"/>
<stop offset="0.367" stop-color="#BCBCBC"/>
<stop offset="0.4288" stop-color="#E1E1E1"/>
<stop offset="0.4788" stop-color="#F7F7F7"/>
<stop offset="0.5107" stop-color="white"/>
<stop offset="0.569" stop-color="#EBEBEB"/>
<stop offset="0.6886" stop-color="#B6B6B6"/>
<stop offset="0.8575" stop-color="#626262"/>
<stop offset="0.995" stop-color="#1A1A1A"/>
</linearGradient>
<linearGradient id="paint1_linear_2_56" x1="25.8488" y1="6.62124" x2="26.4408" y2="32.961" gradientUnits="userSpaceOnUse">
<stop offset="0.164" stop-color="white"/>
<stop offset="0.5107" stop-color="white"/>
<stop offset="0.995" stop-color="white"/>
</linearGradient>
<radialGradient id="paint2_radial_2_56" cx="0" cy="0" r="1" gradientUnits="userSpaceOnUse" gradientTransform="translate(17.4548 8.24196) rotate(-22.4158) scale(6.75778 4.48378)">
<stop stop-color="#F4FFFF"/>
<stop offset="0.6152" stop-color="#242A2E"/>
</radialGradient>
<radialGradient id="paint3_radial_2_56" cx="0" cy="0" r="1" gradientUnits="userSpaceOnUse" gradientTransform="translate(29.836 37.1142) rotate(72.5541) scale(13.4392 42.3529)">
<stop stop-color="#310000"/>
<stop offset="0.0939" stop-color="#360606"/>
<stop offset="0.2237" stop-color="#451818"/>
<stop offset="0.3001" stop-color="#502626"/>
<stop offset="0.4295" stop-color="#7E5E5E"/>
<stop offset="0.5755" stop-color="#AB9797"/>
<stop offset="0.7109" stop-color="#CFC4C4"/>
<stop offset="0.831" stop-color="#E9E4E4"/>
<stop offset="0.9315" stop-color="#F9F8F8"/>
<stop offset="1" stop-color="white"/>
</radialGradient>
<radialGradient id="paint4_radial_2_56" cx="0" cy="0" r="1" gradientUnits="userSpaceOnUse" gradientTransform="translate(7.86042 35.7729) rotate(114.512) scale(12.8549 28.7648)">
<stop stop-color="#310000"/>
<stop offset="0.0939" stop-color="#360606"/>
<stop offset="0.2237" stop-color="#451818"/>
<stop offset="0.3001" stop-color="#502626"/>
<stop offset="0.4295" stop-color="#7E5E5E"/>
<stop offset="0.5755" stop-color="#AB9797"/>
<stop offset="0.7109" stop-color="#CFC4C4"/>
<stop offset="0.831" stop-color="#E9E4E4"/>
<stop offset="0.9315" stop-color="#F9F8F8"/>
<stop offset="1" stop-color="white"/>
</radialGradient>
<radialGradient id="paint5_radial_2_56" cx="0" cy="0" r="1" gradientUnits="userSpaceOnUse" gradientTransform="translate(3.15907 18.337) rotate(148.1) scale(11.6554 26.0723)">
<stop stop-color="#A10000"/>
<stop offset="0.066" stop-color="#A50606"/>
<stop offset="0.1574" stop-color="#B11818"/>
<stop offset="0.2631" stop-color="#C53535"/>
<stop offset="0.3557" stop-color="#DA5555"/>
<stop offset="0.4556" stop-color="#DE6969"/>
<stop offset="0.6606" stop-color="#EA9D9D"/>
<stop offset="0.9502" stop-color="#FCF0F0"/>
<stop offset="1" stop-color="white"/>
</radialGradient>
<radialGradient id="paint6_radial_2_56" cx="0" cy="0" r="1" gradientUnits="userSpaceOnUse" gradientTransform="translate(2.99437 22.9816) rotate(156.393) scale(12.5864 30.4045)">
<stop stop-color="#A10000"/>
<stop offset="0.066" stop-color="#A50606"/>
<stop offset="0.1574" stop-color="#B11818"/>
<stop offset="0.2631" stop-color="#C53535"/>
<stop offset="0.3557" stop-color="#DA5555"/>
<stop offset="0.4556" stop-color="#DE6969"/>
<stop offset="0.6606" stop-color="#EA9D9D"/>
<stop offset="0.9502" stop-color="#FCF0F0"/>
<stop offset="1" stop-color="white"/>
</radialGradient>
<linearGradient id="paint7_linear_2_56" x1="8.91854" y1="26.0009" x2="15.4216" y2="21.4432" gradientUnits="userSpaceOnUse">
<stop offset="0.1583" stop-color="#31FF00"/>
<stop offset="0.2148" stop-color="#43FF16"/>
<stop offset="0.438" stop-color="#85FF68"/>
<stop offset="0.636" stop-color="#B9FFA9"/>
<stop offset="0.8014" stop-color="#DFFFD7"/>
<stop offset="0.9277" stop-color="#F6FFF4"/>
<stop offset="1" stop-color="white"/>
</linearGradient>
<linearGradient id="paint8_linear_2_56" x1="8.81047" y1="25.8473" x2="15.3137" y2="21.2893" gradientUnits="userSpaceOnUse">
<stop offset="0.1583" stop-color="#31FF00"/>
<stop offset="0.2148" stop-color="#43FF16"/>
<stop offset="0.438" stop-color="#85FF68"/>
<stop offset="0.636" stop-color="#B9FFA9"/>
<stop offset="0.8014" stop-color="#DFFFD7"/>
<stop offset="0.9277" stop-color="#F6FFF4"/>
<stop offset="1" stop-color="white"/>
</linearGradient>
</defs>
</svg>
