<svg width="40" height="38" viewBox="0 0 40 38" fill="none" xmlns="http://www.w3.org/2000/svg">
<path d="M37.1376 15.4962C39.7048 24.8205 34.2379 34.464 24.9003 37.0445C15.576 39.6117 5.93245 34.1448 3.35197 24.8072C0.784797 15.4829 6.25168 5.83933 15.5893 3.25886C24.9269 0.691679 34.5704 6.17187 37.1376 15.4962Z" fill="#086DFF"/>
<path d="M28.3056 17.9303C29.5294 22.3863 26.9223 26.9886 22.4663 28.2123C18.0103 29.4361 13.408 26.829 12.1843 22.373C10.9606 17.917 13.5677 13.3147 18.0236 12.091C22.4796 10.8673 27.0819 13.4744 28.3056 17.9303Z" fill="#EAE9CE"/>
<path d="M33.9046 9.17799C32.7075 11.0668 32.3351 13.8202 33.1065 16.6002C33.878 19.3935 35.6072 21.5616 37.6024 22.5592C37.9217 20.2581 37.7886 17.8638 37.1369 15.4829C36.4851 13.1152 35.3545 10.987 33.9046 9.17799Z" fill="#EAE9CE"/>
<path d="M34.5701 13.4877L35.0356 13.4345C35.1687 13.4212 35.2884 13.4212 35.3682 13.4478C35.4613 13.4744 35.5278 13.501 35.5943 13.5409L38.9729 15.0173C39.0394 15.0572 39.1192 15.1104 39.1857 15.1902C39.2522 15.2701 39.3054 15.3898 39.3453 15.5361L39.5714 16.3475L36.4589 15.1237C36.3525 15.0838 36.2594 15.0306 36.1663 14.9774C36.0732 14.9242 35.98 14.8577 35.8869 14.7912L36.6983 17.6776C36.7116 17.7175 36.7116 17.7574 36.7116 17.8106C36.7116 17.8505 36.7116 17.8904 36.6983 17.9303C36.685 17.9702 36.6717 17.9968 36.6451 18.0368C36.6185 18.0634 36.6052 18.09 36.5786 18.1033L35.9135 18.4092L34.5701 13.4877Z" fill="black"/>
<path d="M6.58415 31.1121C7.78127 29.2233 8.15372 26.4699 7.39553 23.6899C6.62405 20.8966 4.89486 18.7284 2.89965 17.7308C2.58042 20.032 2.71343 22.4262 3.3652 24.8072C4.01697 27.1881 5.13429 29.3164 6.58415 31.1121Z" fill="#EAE9CE"/>
<path d="M6.05208 26.6561L5.49342 26.7226C5.3338 26.7359 5.20078 26.7359 5.08107 26.696C4.97466 26.6561 4.88155 26.6295 4.80174 26.5896L0.731503 24.7673C0.638393 24.7274 0.558585 24.6609 0.478776 24.5545C0.398967 24.4614 0.332459 24.315 0.279254 24.1288L-7.62939e-05 23.1312L3.75093 24.6476C3.87064 24.7008 3.99035 24.7673 4.09676 24.8338C4.20318 24.9003 4.32289 24.9801 4.4293 25.0599L3.44499 21.535C3.43169 21.4818 3.41839 21.4286 3.41839 21.3754C3.41839 21.3222 3.43169 21.269 3.44499 21.2291C3.4583 21.1892 3.4716 21.136 3.4982 21.1094C3.5248 21.0695 3.55141 21.0429 3.57801 21.0296L4.3761 20.6704L6.05208 26.6561Z" fill="black"/>
<path d="M9.28447 6.49109C11.1733 7.68822 13.9134 8.06066 16.7067 7.30248C19.5 6.531 21.6681 4.80181 22.6657 2.8066C20.3646 2.48736 17.9703 2.62038 15.5893 3.27215C13.2217 3.92392 11.0935 5.04124 9.28447 6.49109Z" fill="#EAE9CE"/>
<path d="M13.4078 6.05215L13.3413 5.49349C13.328 5.33388 13.328 5.20086 13.3679 5.08115C13.4078 4.97474 13.4344 4.88163 13.4743 4.80182L15.2966 0.731583C15.3365 0.638473 15.403 0.558663 15.5094 0.478855C15.6025 0.399046 15.7488 0.33254 15.9351 0.279334L16.9327 3.8147e-06L15.4163 3.75101C15.3631 3.87072 15.2966 3.99043 15.2301 4.09684C15.1636 4.20326 15.0838 4.32297 15.004 4.42938L18.5288 3.44507C18.5821 3.43177 18.6353 3.41847 18.6885 3.41847C18.7417 3.41847 18.7949 3.43177 18.8348 3.44507C18.8747 3.45838 18.9146 3.47168 18.9545 3.49828C18.9944 3.52488 19.021 3.55149 19.0343 3.57809L19.3934 4.37617L13.4078 6.05215Z" fill="black"/>
<path d="M31.2184 33.8122C29.3296 32.6151 26.5895 32.2427 23.7962 33.0008C21.0029 33.7723 18.8347 35.5015 17.8371 37.4967C20.1383 37.816 22.5325 37.6829 24.9135 37.0312C27.2811 36.3794 29.4094 35.2621 31.2184 33.8122Z" fill="#EAE9CE"/>
<path d="M22.3864 15.0971L22.5993 15.8553C22.6658 16.0814 22.6924 16.2677 22.6791 16.4273C22.6658 16.5736 22.6525 16.7066 22.6259 16.813L21.4287 23.9027C21.3888 24.0889 21.3223 24.2618 21.2026 24.4214C21.0829 24.5811 20.8967 24.6875 20.6573 24.7673L19.3404 25.1397L20.6706 18.1964C20.7105 18.0102 20.7637 17.8372 20.8169 17.6776C20.8701 17.518 20.9366 17.3584 21.0164 17.2121L17.2787 18.2629C17.2255 18.2762 17.1723 18.2762 17.1191 18.2762C17.0659 18.2762 17.0127 18.2496 16.9728 18.223C16.9196 18.1964 16.8796 18.1565 16.8397 18.1166C16.7998 18.0767 16.7732 18.0235 16.7599 17.9836L16.4274 16.7997L22.3864 15.0971Z" fill="black"/>
<mask id="mask0_2_241" style="mask-type:alpha" maskUnits="userSpaceOnUse" x="3" y="3" width="20" height="34">
<path d="M5.64078 12.1309C8.68681 6.63745 14.739 3.20568 21.3099 3.89736C21.6557 3.93726 21.9882 3.97717 22.3208 4.04367C16.1622 3.80425 10.5889 7.15621 7.70251 12.3571C6.665 14.2326 5.96002 16.3608 5.72059 18.6353C5.48117 20.9099 5.72059 23.1312 6.35906 25.1929C8.10155 30.8727 12.8768 35.3153 18.9422 36.3528C18.6097 36.3395 18.2638 36.3129 17.918 36.2863C11.3604 35.5947 6.14624 30.9924 4.29734 24.9801C3.67217 22.9317 3.43275 20.7104 3.65887 18.4225C3.9116 16.1347 4.60327 14.0197 5.64078 12.1309Z" fill="url(#paint0_linear_2_241)"/>
</mask>
<g mask="url(#mask0_2_241)">
<path opacity="0.54" d="M5.63961 12.1309C8.68564 6.63744 14.7378 3.20567 21.3087 3.89735C21.6545 3.93725 21.9871 3.97715 22.3196 4.04366C16.161 3.80424 10.5877 7.1562 7.70133 12.3571C6.66382 14.2326 5.95885 16.3608 5.71942 18.6353C5.47999 20.9099 5.71942 23.1312 6.35789 25.1929C8.10038 30.8726 12.8756 35.3153 18.941 36.3528C18.6085 36.3395 18.2627 36.3129 17.9168 36.2863C11.3592 35.5947 6.14506 30.9924 4.29616 24.9801C3.671 22.9317 3.43157 20.7104 3.6577 18.4225C3.91042 16.1347 4.6021 14.0197 5.63961 12.1309Z" fill="url(#paint1_linear_2_241)"/>
</g>
<mask id="mask1_2_241" style="mask-type:alpha" maskUnits="userSpaceOnUse" x="18" y="3" width="19" height="34">
<path d="M36.1805 15.3366C34.3316 9.33765 29.1307 4.72206 22.5598 4.03038C22.214 3.99048 21.8815 3.97718 21.5356 3.96387C27.6011 5.00139 32.3763 9.44406 34.1188 15.1238C34.7439 17.1722 34.9834 19.3935 34.7572 21.6814C34.5178 23.9559 33.8261 26.0842 32.7753 27.9597C29.8889 33.1605 24.3023 36.5125 18.1571 36.273C18.4896 36.3262 18.8221 36.3795 19.168 36.4194C25.7256 37.111 31.7777 33.6793 34.8371 28.1858C35.8746 26.3103 36.5795 24.182 36.819 21.9075C37.0584 19.6064 36.819 17.385 36.1805 15.3366Z" fill="url(#paint2_linear_2_241)"/>
</mask>
<g mask="url(#mask1_2_241)">
<path opacity="0.34" d="M36.18 15.3366C34.3311 9.33762 29.1303 4.72202 22.5593 4.03035C22.2135 3.99045 21.881 3.97715 21.5351 3.96384C27.6006 5.00136 32.3758 9.44403 34.1183 15.1237C34.7435 17.1722 34.9829 19.3935 34.7568 21.6813C34.5173 23.9559 33.8257 26.0841 32.7748 27.9596C29.8884 33.1605 24.3018 36.5124 18.1566 36.273C18.4891 36.3262 18.8216 36.3794 19.1675 36.4193C25.7251 37.111 31.7772 33.6792 34.8366 28.1857C35.8741 26.3102 36.5791 24.182 36.8185 21.9075C37.0579 19.6063 36.8185 17.385 36.18 15.3366Z" fill="url(#paint3_linear_2_241)"/>
<path d="M5.7728 50.9445C-8.26021 42.6577 -16.6401 30.8327 -12.9423 24.5545C-9.24452 18.2762 5.13432 19.9123 19.1673 28.1991C33.2003 36.4992 41.5802 48.3108 37.8824 54.5891C34.1847 60.8807 19.8058 59.2446 5.7728 50.9445Z" fill="url(#paint4_radial_2_241)"/>
</g>
<defs>
<linearGradient id="paint0_linear_2_241" x1="13.772" y1="8.02423" x2="10.9855" y2="29.8729" gradientUnits="userSpaceOnUse">
<stop stop-color="#1A1A1A"/>
<stop offset="0.5457" stop-color="white"/>
<stop offset="0.995" stop-color="#1A1A1A"/>
</linearGradient>
<linearGradient id="paint1_linear_2_241" x1="13.7708" y1="8.02422" x2="10.9843" y2="29.8729" gradientUnits="userSpaceOnUse">
<stop stop-color="white"/>
<stop offset="0.5457" stop-color="white"/>
<stop offset="0.995" stop-color="white"/>
</linearGradient>
<linearGradient id="paint2_linear_2_241" x1="29.0901" y1="9.6291" x2="27.2878" y2="31.5812" gradientUnits="userSpaceOnUse">
<stop stop-color="#1A1A1A"/>
<stop offset="0.5457" stop-color="white"/>
<stop offset="0.995" stop-color="#1A1A1A"/>
</linearGradient>
<linearGradient id="paint3_linear_2_241" x1="29.0896" y1="9.62907" x2="27.2873" y2="31.5812" gradientUnits="userSpaceOnUse">
<stop stop-color="white"/>
<stop offset="0.5457" stop-color="white"/>
<stop offset="0.995" stop-color="white"/>
</linearGradient>
<radialGradient id="paint4_radial_2_241" cx="0" cy="0" r="1" gradientUnits="userSpaceOnUse" gradientTransform="translate(12.4672 39.5778) rotate(120.483) scale(13.1921 29.5187)">
<stop stop-color="#325115"/>
<stop offset="0.0866" stop-color="#38551B"/>
<stop offset="0.2065" stop-color="#49602D"/>
<stop offset="0.3453" stop-color="#65724A"/>
<stop offset="0.4304" stop-color="#797F60"/>
<stop offset="0.4856" stop-color="#8A8F74"/>
<stop offset="0.6625" stop-color="#BCBFAF"/>
<stop offset="0.8134" stop-color="#E0E2DB"/>
<stop offset="0.9307" stop-color="#F7F7F5"/>
<stop offset="1" stop-color="white"/>
</radialGradient>
</defs>
</svg>
